<svg width="32" height="32" viewBox="0 0 32 32" fill="none" xmlns="http://www.w3.org/2000/svg">
<mask id="mask0_397_205" style="mask-type:alpha" maskUnits="userSpaceOnUse" x="0" y="0" width="32" height="32">
<rect width="32" height="32" fill="#D9D9D9"/>
</mask>
<g mask="url(#mask0_397_205)">
<path d="M16.0023 20.6667C13.5888 20.6667 11.5405 19.826 9.85765 18.1447C8.17476 16.4636 7.33331 14.4161 7.33331 12.0023C7.33331 9.58877 8.17398 7.54055 9.85531 5.85766C11.5364 4.17477 13.5839 3.33333 15.9976 3.33333C18.4112 3.33333 20.4594 4.17399 22.1423 5.85533C23.8252 7.53644 24.6666 9.58388 24.6666 11.9977C24.6666 14.4112 23.826 16.4594 22.1446 18.1423C20.4635 19.8252 18.4161 20.6667 16.0023 20.6667ZM15.999 18.9913C17.9432 18.9913 19.5946 18.3124 20.9533 16.9547C22.312 15.5967 22.9913 13.9454 22.9913 12.001C22.9913 10.0568 22.3124 8.40533 20.9546 7.04666C19.5966 5.688 17.9454 5.00866 16.001 5.00866C14.0568 5.00866 12.4053 5.68755 11.0466 7.04533C9.68798 8.40333 9.00865 10.0546 9.00865 11.999C9.00865 13.9432 9.68753 15.5947 11.0453 16.9533C12.4033 18.312 14.0545 18.9913 15.999 18.9913ZM13.2703 11.7743C13.591 11.7743 13.8662 11.6593 14.096 11.4293C14.326 11.1993 14.441 10.924 14.441 10.6033C14.441 10.2827 14.326 10.0073 14.096 9.77733C13.866 9.54733 13.5906 9.43233 13.27 9.43233C12.9493 9.43233 12.674 9.54744 12.444 9.77766C12.214 10.0077 12.099 10.283 12.099 10.6037C12.099 10.9243 12.2141 11.1996 12.4443 11.4293C12.6743 11.6593 12.9496 11.7743 13.2703 11.7743ZM18.73 11.7743C19.0506 11.7743 19.326 11.6593 19.556 11.4293C19.786 11.1993 19.901 10.924 19.901 10.6033C19.901 10.2827 19.7859 10.0073 19.5556 9.77733C19.3256 9.54733 19.0503 9.43233 18.7296 9.43233C18.409 9.43233 18.1338 9.54744 17.904 9.77766C17.674 10.0077 17.559 10.283 17.559 10.6037C17.559 10.9243 17.674 11.1996 17.904 11.4293C18.134 11.6593 18.4093 11.7743 18.73 11.7743ZM16 8.94533C16.3209 8.94533 16.5962 8.83033 16.826 8.60033C17.056 8.37033 17.171 8.09499 17.171 7.77433C17.171 7.45344 17.056 7.17811 16.826 6.94833C16.596 6.71833 16.3206 6.60333 16 6.60333C15.6791 6.60333 15.4038 6.71833 15.174 6.94833C14.944 7.17833 14.829 7.45377 14.829 7.77466C14.829 8.09533 14.944 8.37055 15.174 8.60033C15.404 8.83033 15.6793 8.94533 16 8.94533ZM15.1623 28.5897V27.13C15.1623 26.2609 14.8736 25.5377 14.2963 24.9603C13.7188 24.3828 12.9954 24.094 12.1263 24.094H10.6836C10.4463 24.094 10.2474 24.0133 10.087 23.852C9.92653 23.6904 9.84631 23.4904 9.84631 23.252C9.84631 23.0133 9.92653 22.8148 10.087 22.6563C10.2474 22.4979 10.4463 22.4187 10.6836 22.4187H21.3163C21.5536 22.4187 21.7525 22.4994 21.913 22.661C22.0734 22.8223 22.1536 23.0223 22.1536 23.261C22.1536 23.4994 22.0734 23.6979 21.913 23.8563C21.7525 24.0148 21.5536 24.094 21.3163 24.094H19.8736C19.0045 24.094 18.2812 24.3828 17.7036 24.9603C17.1263 25.5377 16.8376 26.2609 16.8376 27.13V28.5897H15.1623Z" fill="#777777"/>
</g>
</svg>
