<svg width="32" height="32" viewBox="0 0 32 32" fill="none" xmlns="http://www.w3.org/2000/svg">
<mask id="mask0_654_1092" style="mask-type:alpha" maskUnits="userSpaceOnUse" x="0" y="0" width="32" height="32">
<rect width="32" height="32" fill="#D9D9D9"/>
</mask>
<g mask="url(#mask0_654_1092)">
<path d="M16.4557 28.1907L16.0213 15.8693L10.27 14.171H2.11965C1.88232 14.171 1.68343 14.0902 1.52298 13.9287C1.36232 13.7673 1.28198 13.5674 1.28198 13.329C1.28198 13.0903 1.36232 12.8918 1.52298 12.7333C1.68343 12.5749 1.88232 12.4957 2.11965 12.4957H9.48532L18.5737 6.04433C18.7554 5.91966 18.9475 5.87233 19.15 5.90233C19.3524 5.93255 19.5309 6.03022 19.6853 6.19533C19.8318 6.38422 19.895 6.59811 19.875 6.837C19.8548 7.07588 19.7445 7.27011 19.5443 7.41966L14.646 10.9153L18.7223 12.0427L28.652 6.09133C28.8035 5.99689 28.9715 5.968 29.156 6.00466C29.3402 6.04133 29.5086 6.14644 29.6613 6.32C29.8142 6.48044 29.8773 6.668 29.8507 6.88266C29.824 7.09711 29.7165 7.27122 29.5283 7.405L19.0803 15.165L18.2376 28.2033C18.2174 28.4278 18.1194 28.6167 17.9436 28.77C17.7679 28.9233 17.551 29 17.293 29C17.0719 29 16.8805 28.9219 16.719 28.7657C16.5574 28.6094 16.4697 28.4178 16.4557 28.1907ZM8.12998 10.3487C7.47932 10.3487 6.92487 10.1202 6.46665 9.66333C6.00865 9.20644 5.77965 8.65255 5.77965 8.00166C5.77965 7.351 6.00809 6.79655 6.46498 6.33833C6.92187 5.88033 7.47565 5.65133 8.12632 5.65133C8.7772 5.65133 9.33165 5.87977 9.78965 6.33666C10.2479 6.79355 10.477 7.34744 10.477 7.99833C10.477 8.649 10.2485 9.20344 9.79165 9.66166C9.33454 10.1197 8.78065 10.3487 8.12998 10.3487Z" fill="#777777"/>
</g>
</svg>
