<svg width="32" height="32" viewBox="0 0 32 32" fill="none" xmlns="http://www.w3.org/2000/svg">
<mask id="mask0_607_97" style="mask-type:alpha" maskUnits="userSpaceOnUse" x="0" y="0" width="32" height="32">
<rect width="32" height="32" fill="#D9D9D9"/>
</mask>
<g mask="url(#mask0_607_97)">
<path d="M16.0023 20.6667C13.5887 20.6667 11.5405 19.826 9.85759 18.1447C8.1747 16.4636 7.33325 14.4161 7.33325 12.0023C7.33325 9.58878 8.17392 7.54055 9.85525 5.85766C11.5364 4.17478 13.5838 3.33333 15.9976 3.33333C18.4111 3.33333 20.4594 4.174 22.1423 5.85533C23.8251 7.53644 24.6666 9.58389 24.6666 11.9977C24.6666 14.4112 23.8259 16.4594 22.1446 18.1423C20.4635 19.8252 18.416 20.6667 16.0023 20.6667ZM15.9989 18.9913C17.9431 18.9913 19.5946 18.3124 20.9533 16.9547C22.3119 15.5967 22.9913 13.9454 22.9913 12.001C22.9913 10.0568 22.3124 8.40533 20.9546 7.04667C19.5966 5.688 17.9454 5.00867 16.0009 5.00867C14.0567 5.00867 12.4053 5.68755 11.0466 7.04533C9.68792 8.40333 9.00859 10.0546 9.00859 11.999C9.00859 13.9432 9.68747 15.5947 11.0453 16.9533C12.4033 18.312 14.0545 18.9913 15.9989 18.9913ZM13.2703 11.7743C13.5909 11.7743 13.8661 11.6593 14.0959 11.4293C14.3259 11.1993 14.4409 10.924 14.4409 10.6033C14.4409 10.2827 14.3259 10.0073 14.0959 9.77733C13.8659 9.54733 13.5906 9.43233 13.2699 9.43233C12.9493 9.43233 12.6739 9.54744 12.4439 9.77767C12.2139 10.0077 12.0989 10.283 12.0989 10.6037C12.0989 10.9243 12.214 11.1996 12.4443 11.4293C12.6743 11.6593 12.9496 11.7743 13.2703 11.7743ZM18.7299 11.7743C19.0506 11.7743 19.3259 11.6593 19.5559 11.4293C19.7859 11.1993 19.9009 10.924 19.9009 10.6033C19.9009 10.2827 19.7858 10.0073 19.5556 9.77733C19.3256 9.54733 19.0503 9.43233 18.7296 9.43233C18.4089 9.43233 18.1337 9.54744 17.9039 9.77767C17.6739 10.0077 17.5589 10.283 17.5589 10.6037C17.5589 10.9243 17.6739 11.1996 17.9039 11.4293C18.1339 11.6593 18.4093 11.7743 18.7299 11.7743ZM15.9999 8.94533C16.3208 8.94533 16.5961 8.83033 16.8259 8.60033C17.0559 8.37033 17.1709 8.095 17.1709 7.77433C17.1709 7.45344 17.0559 7.17811 16.8259 6.94833C16.5959 6.71833 16.3206 6.60333 15.9999 6.60333C15.679 6.60333 15.4037 6.71833 15.1739 6.94833C14.9439 7.17833 14.8289 7.45378 14.8289 7.77467C14.8289 8.09533 14.9439 8.37055 15.1739 8.60033C15.4039 8.83033 15.6793 8.94533 15.9999 8.94533ZM15.1623 28.5897V27.13C15.1623 26.2609 14.8736 25.5377 14.2963 24.9603C13.7187 24.3828 12.9954 24.094 12.1263 24.094H10.6836C10.4463 24.094 10.2474 24.0133 10.0869 23.852C9.92647 23.6904 9.84625 23.4904 9.84625 23.252C9.84625 23.0133 9.92647 22.8148 10.0869 22.6563C10.2474 22.4979 10.4463 22.4187 10.6836 22.4187H21.3163C21.5536 22.4187 21.7525 22.4994 21.9129 22.661C22.0734 22.8223 22.1536 23.0223 22.1536 23.261C22.1536 23.4994 22.0734 23.6979 21.9129 23.8563C21.7525 24.0148 21.5536 24.094 21.3163 24.094H19.8736C19.0045 24.094 18.2811 24.3828 17.7036 24.9603C17.1263 25.5377 16.8376 26.2609 16.8376 27.13V28.5897H15.1623Z" fill="#777777"/>
</g>
</svg>
