<svg width="32" height="32" viewBox="0 0 32 32" fill="none" xmlns="http://www.w3.org/2000/svg">
<mask id="mask0_607_72" style="mask-type:alpha" maskUnits="userSpaceOnUse" x="0" y="0" width="32" height="32">
<rect width="32" height="32" fill="#D9D9D9"/>
</mask>
<g mask="url(#mask0_607_72)">
<path d="M16 26.2973C15.1647 26.2973 14.4638 26.5256 13.8973 26.982C13.3311 27.4384 12.5351 27.6667 11.5093 27.6667C10.4838 27.6667 9.68556 27.4384 9.11467 26.982C8.54356 26.5256 7.84033 26.2973 7.005 26.2973C6.34411 26.2973 5.79256 26.4371 5.35033 26.7167C4.90833 26.9962 4.41978 27.2322 3.88467 27.4247C3.67444 27.5113 3.47444 27.484 3.28467 27.3427C3.09489 27.2013 3 24.548 3 24.2973C3 24.0438 3.08478 23.8207 3.25433 23.628C3.42389 23.4356 3.632 23.2898 3.87867 23.1907C4.32422 23.0049 4.756 22.7852 5.174 22.5317C5.592 22.2781 6.20233 22.1513 7.005 22.1513C8.03878 22.1513 8.84111 22.3818 9.412 22.8427C9.98289 23.3036 10.7031 23.534 11.5727 23.534C12.4478 23.534 13.1461 23.3036 13.6677 22.8427C14.189 22.3818 14.9664 22.1513 16 22.1513C17.0336 22.1513 17.8401 22.3818 18.4197 22.8427C18.9992 23.3036 19.7237 23.534 20.593 23.534C21.4683 23.534 22.1661 23.3036 22.6863 22.8427C23.2066 22.3818 23.9807 22.1513 25.0087 22.1513C25.8113 22.1513 26.4217 22.2781 26.8397 22.5317C27.2577 22.7852 27.6849 23.0049 28.1213 23.1907C28.368 23.2898 28.5761 23.4356 28.7457 23.628C28.9152 23.8207 29 24.0438 29 24.2973C29 24.548 28.9051 27.2013 28.7153 27.3427C28.5256 27.484 28.3256 27.5113 28.1153 27.4247C27.5802 27.2322 27.0977 26.9962 26.6677 26.7167C26.2374 26.4371 25.6844 26.2973 25.0087 26.2973C24.1733 26.2973 23.485 26.5256 22.9437 26.982C22.4023 27.4384 21.6188 27.6667 20.593 27.6667C19.5674 27.6667 18.7544 27.4384 18.154 26.982C17.5533 26.5256 16.8353 26.2973 16 26.2973ZM16 21.171C15.1556 21.171 14.465 21.3992 13.9283 21.8557C13.3914 22.3119 12.6062 22.54 11.5727 22.54C10.5391 22.54 9.72833 22.3119 9.14033 21.8557C8.55211 21.3992 7.84033 21.171 7.005 21.171C6.32922 21.171 5.76944 21.313 5.32567 21.597C4.88167 21.881 4.39222 22.1193 3.85733 22.312C3.64711 22.3929 3.45167 22.3618 3.271 22.2187C3.09033 22.0758 3 19.2269 3 19C3 18.75 3.08478 18.5347 3.25433 18.354C3.42389 18.1733 3.62456 18.0334 3.85633 17.9343C4.30767 17.7577 4.74456 17.5403 5.167 17.2823C5.58967 17.0241 6.20233 16.895 7.005 16.895C8.03878 16.895 8.83022 17.1127 9.37933 17.548C9.92867 17.9833 10.6387 18.201 11.5093 18.201C12.3847 18.201 13.0936 17.9833 13.636 17.548C14.1784 17.1127 14.9664 16.895 16 16.895C17.0336 16.895 17.8239 17.1127 18.371 17.548C18.9179 17.9833 19.629 18.201 20.5043 18.201C21.3794 18.201 22.092 17.9833 22.642 17.548C23.1918 17.1127 23.9807 16.895 25.0087 16.895C25.8171 16.895 26.4312 17.0241 26.851 17.2823C27.2706 17.5403 27.706 17.7577 28.1573 17.9343C28.3891 18.0334 28.5876 18.1733 28.7527 18.354C28.9176 18.5347 29 18.75 29 19C29 19.2269 28.912 22.0758 28.736 22.2187C28.5598 22.3618 28.3694 22.3929 28.165 22.312C27.6243 22.1193 27.132 21.881 26.688 21.597C26.2442 21.313 25.6844 21.171 25.0087 21.171C24.1733 21.171 23.487 21.3992 22.9497 21.8557C22.4123 22.3119 21.6268 22.54 20.593 22.54C19.5686 22.54 18.7558 22.3119 18.1547 21.8557C17.5536 21.3992 16.8353 21.171 16 21.171ZM9.988 14.848L14.3847 10.4513L12.4667 8.53333C11.8616 7.92822 11.258 7.48589 10.656 7.20633C10.054 6.92678 9.333 6.73889 8.493 6.64267C8.17567 6.60333 7.90456 6.47078 7.67967 6.245C7.45456 6.019 7.342 5.74733 7.342 5.43C7.342 5.11378 7.45356 4.85178 7.67667 4.644C7.89956 4.43644 8.16978 4.35056 8.48733 4.38633C9.64444 4.49167 10.6392 4.73189 11.4717 5.107C12.3043 5.48189 13.1254 6.07411 13.935 6.88367L22.034 14.983C21.8249 15.1521 21.5922 15.279 21.336 15.3637C21.0796 15.4483 20.8066 15.4907 20.517 15.4907C19.8014 15.4907 19.1472 15.2624 18.5543 14.806C17.9614 14.3496 17.11 14.1213 16 14.1213C14.89 14.1213 14.0423 14.3496 13.457 14.806C12.8714 15.2624 12.218 15.4907 11.4967 15.4907C11.1742 15.4907 10.8862 15.4318 10.6327 15.314C10.3791 15.1964 10.1642 15.0411 9.988 14.848ZM22.087 4.511C22.9252 4.511 23.6348 4.80122 24.2157 5.38167C24.7966 5.96189 25.087 6.66889 25.087 7.50267C25.087 8.34089 24.7966 9.05044 24.2157 9.63133C23.6348 10.2122 22.9252 10.5027 22.087 10.5027C21.249 10.5027 20.5409 10.2122 19.9627 9.63133C19.3847 9.05044 19.0957 8.34089 19.0957 7.50267C19.0957 6.66889 19.3847 5.96189 19.9627 5.38167C20.5409 4.80122 21.249 4.511 22.087 4.511Z" fill="#A5210D"/>
</g>
</svg>
