<svg width="32" height="32" viewBox="0 0 32 32" fill="none" xmlns="http://www.w3.org/2000/svg">
<mask id="mask0_490_810" style="mask-type:alpha" maskUnits="userSpaceOnUse" x="0" y="0" width="32" height="32">
<rect width="32" height="32" fill="#D9D9D9"/>
</mask>
<g mask="url(#mask0_490_810)">
<path d="M7.20002 13.1623H3.50002C3.57757 12.8352 3.68213 12.5229 3.81368 12.2253C3.94524 11.9276 4.11591 11.6404 4.32568 11.364L9.47202 4.49733C9.75557 4.11444 10.1329 3.86111 10.604 3.73733C11.0749 3.61333 11.5266 3.66845 11.959 3.90267L12.905 4.36933C13.2606 4.554 13.532 4.804 13.7193 5.11933C13.9065 5.43467 14 5.78378 14 6.16667V9.82567L17.3 8.97433C17.8042 8.83944 18.2862 8.90144 18.746 9.16033C19.206 9.41922 19.5215 9.794 19.6924 10.2847L21.9103 16.959L27.6923 22.741C28.0683 23.117 28.3247 23.5221 28.4613 23.9563C28.5982 24.3906 28.6667 24.8496 28.6667 25.3333C28.6667 26.1118 28.43 26.793 27.9567 27.377C27.4836 27.961 26.8832 28.3368 26.1557 28.5043H25.7323L11.4564 14.8563C10.8644 14.3146 10.2026 13.8968 9.47102 13.603C8.73924 13.3092 7.98224 13.1623 7.20002 13.1623ZM18.8667 28.6667C18.2856 28.6667 17.7313 28.5616 17.204 28.3513C16.6767 28.1411 16.1916 27.8393 15.7487 27.446L4.91535 17.6127C4.49491 17.2367 4.16635 16.8098 3.92968 16.332C3.69279 15.8542 3.53168 15.3561 3.44635 14.8377H7.20002C7.77202 14.8377 8.32891 14.9433 8.87068 15.1547C9.41224 15.366 9.89213 15.6734 10.3103 16.077L23.441 28.6667H18.8667Z" fill="#A5210D"/>
</g>
</svg>
