<svg width="19" height="19" viewBox="0 0 19 19" fill="none" xmlns="http://www.w3.org/2000/svg">
<rect width="19" height="19" rx="9.5" fill="#777777"/>
<mask id="mask0_766_504" style="mask-type:alpha" maskUnits="userSpaceOnUse" x="0" y="0" width="19" height="19">
<rect width="19" height="19" fill="#D9D9D9"/>
</mask>
<g mask="url(#mask0_766_504)">
<path d="M15.6353 3.98365V7.02859C15.6353 7.16951 15.5874 7.2876 15.4916 7.38287C15.3957 7.47826 15.277 7.52596 15.1354 7.52596C14.9937 7.52596 14.8758 7.47826 14.7817 7.38287C14.6876 7.2876 14.6406 7.16951 14.6406 7.02859V5.07931L10.7984 8.89396C11.0685 9.27396 11.2825 9.68325 11.4403 10.1218C11.5981 10.5603 11.677 11.0127 11.677 11.4791C11.677 12.6379 11.274 13.6203 10.4681 14.4263C9.66221 15.2324 8.67995 15.6354 7.52135 15.6354C6.36287 15.6354 5.38048 15.2324 4.57417 14.4265C3.76772 13.6206 3.3645 12.6383 3.3645 11.4797C3.3645 10.3213 3.76753 9.33888 4.57357 8.53256C5.37962 7.72612 6.36202 7.3229 7.52075 7.3229C7.98691 7.3229 8.43585 7.402 8.86758 7.5602C9.2993 7.7184 9.70549 7.93215 10.0861 8.20145L13.9283 4.35929H11.9713C11.8304 4.35929 11.7123 4.31133 11.617 4.21541C11.5216 4.11961 11.4739 4.00086 11.4739 3.85916C11.4739 3.71758 11.5216 3.59975 11.617 3.50568C11.7123 3.4116 11.8304 3.36456 11.9713 3.36456H15.0163C15.1916 3.36456 15.3387 3.42387 15.4574 3.54249C15.576 3.66124 15.6353 3.80829 15.6353 3.98365ZM7.52214 8.31763C6.64669 8.31763 5.90067 8.62539 5.2841 9.24091C4.66752 9.85656 4.35923 10.6022 4.35923 11.4778C4.35923 12.3532 4.66699 13.0992 5.28251 13.7158C5.89817 14.3324 6.64378 14.6407 7.51937 14.6407C8.39482 14.6407 9.14083 14.3329 9.75741 13.7174C10.374 13.1017 10.6823 12.3561 10.6823 11.4805C10.6823 10.6051 10.3745 9.85907 9.75899 9.24249C9.14334 8.62591 8.39772 8.31763 7.52214 8.31763Z" fill="white"/>
</g>
</svg>
