<svg width="32" height="32" viewBox="0 0 32 32" fill="none" xmlns="http://www.w3.org/2000/svg">
<mask id="mask0_607_70" style="mask-type:alpha" maskUnits="userSpaceOnUse" x="0" y="0" width="32" height="32">
<rect width="32" height="32" fill="#D9D9D9"/>
</mask>
<g mask="url(#mask0_607_70)">
<path d="M16 26.2973C15.1647 26.2973 14.4638 26.5256 13.8973 26.982C13.3311 27.4384 12.5351 27.6667 11.5093 27.6667C10.4838 27.6667 9.68556 27.4384 9.11467 26.982C8.54356 26.5256 7.84033 26.2973 7.005 26.2973C6.34411 26.2973 5.79256 26.4371 5.35033 26.7167C4.90833 26.9962 4.41978 27.2322 3.88467 27.4247C3.67444 27.5113 3.47444 27.484 3.28467 27.3427C3.09489 27.2013 3 27.0053 3 26.7547C3 26.5011 3.08478 26.278 3.25433 26.0853C3.42389 25.8929 3.632 25.7471 3.87867 25.648C4.32422 25.4622 4.756 25.2426 5.174 24.989C5.592 24.7354 6.20233 24.6087 7.005 24.6087C8.03878 24.6087 8.84111 24.8391 9.412 25.3C9.98289 25.7609 10.7031 25.9913 11.5727 25.9913C12.4478 25.9913 13.1461 25.7609 13.6677 25.3C14.189 24.8391 14.9664 24.6087 16 24.6087C17.0336 24.6087 17.8401 24.8391 18.4197 25.3C18.9992 25.7609 19.7237 25.9913 20.593 25.9913C21.4683 25.9913 22.1661 25.7609 22.6863 25.3C23.2066 24.8391 23.9807 24.6087 25.0087 24.6087C25.8113 24.6087 26.4217 24.7354 26.8397 24.989C27.2577 25.2426 27.6849 25.4622 28.1213 25.648C28.368 25.7471 28.5761 25.8929 28.7457 26.0853C28.9152 26.278 29 26.5011 29 26.7547C29 27.0053 28.9051 27.2013 28.7153 27.3427C28.5256 27.484 28.3256 27.5113 28.1153 27.4247C27.5802 27.2322 27.0977 26.9962 26.6677 26.7167C26.2374 26.4371 25.6844 26.2973 25.0087 26.2973C24.1733 26.2973 23.485 26.5256 22.9437 26.982C22.4023 27.4384 21.6188 27.6667 20.593 27.6667C19.5674 27.6667 18.7544 27.4384 18.154 26.982C17.5533 26.5256 16.8353 26.2973 16 26.2973ZM16 20.171C15.1556 20.171 14.465 20.3992 13.9283 20.8557C13.3914 21.3119 12.6062 21.54 11.5727 21.54C10.5391 21.54 9.72833 21.3119 9.14033 20.8557C8.55211 20.3992 7.84033 20.171 7.005 20.171C6.32922 20.171 5.76944 20.313 5.32567 20.597C4.88167 20.881 4.39222 21.1193 3.85733 21.312C3.64711 21.3929 3.45167 21.3618 3.271 21.2187C3.09033 21.0758 3 20.8909 3 20.664C3 20.414 3.08478 20.1987 3.25433 20.018C3.42389 19.8373 3.62456 19.6974 3.85633 19.5983C4.30767 19.4217 4.74456 19.2043 5.167 18.9463C5.58967 18.6881 6.20233 18.559 7.005 18.559C8.03878 18.559 8.83022 18.7767 9.37933 19.212C9.92867 19.6473 10.6387 19.865 11.5093 19.865C12.3847 19.865 13.0936 19.6473 13.636 19.212C14.1784 18.7767 14.9664 18.559 16 18.559C17.0336 18.559 17.8239 18.7767 18.371 19.212C18.9179 19.6473 19.629 19.865 20.5043 19.865C21.3794 19.865 22.092 19.6473 22.642 19.212C23.1918 18.7767 23.9807 18.559 25.0087 18.559C25.8171 18.559 26.4312 18.6881 26.851 18.9463C27.2706 19.2043 27.706 19.4217 28.1573 19.5983C28.3891 19.6974 28.5876 19.8373 28.7527 20.018C28.9176 20.1987 29 20.414 29 20.664C29 20.8909 28.912 21.0758 28.736 21.2187C28.5598 21.3618 28.3694 21.3929 28.165 21.312C27.6243 21.1193 27.132 20.881 26.688 20.597C26.2442 20.313 25.6844 20.171 25.0087 20.171C24.1733 20.171 23.487 20.3992 22.9497 20.8557C22.4123 21.3119 21.6268 21.54 20.593 21.54C19.5686 21.54 18.7558 21.3119 18.1547 20.8557C17.5536 20.3992 16.8353 20.171 16 20.171ZM9.988 14.848L14.3847 10.4513L12.4667 8.53333C11.8616 7.92822 11.258 7.48589 10.656 7.20633C10.054 6.92678 9.333 6.73889 8.493 6.64267C8.17567 6.60333 7.90456 6.47077 7.67967 6.245C7.45456 6.019 7.342 5.74733 7.342 5.43C7.342 5.11378 7.45356 4.85178 7.67667 4.644C7.89956 4.43644 8.16978 4.35055 8.48733 4.38633C9.64444 4.49166 10.6392 4.73189 11.4717 5.107C12.3043 5.48189 13.1254 6.07411 13.935 6.88366L22.034 14.983C21.8249 15.1521 21.5922 15.279 21.336 15.3637C21.0796 15.4483 20.8066 15.4907 20.517 15.4907C19.8014 15.4907 19.1472 15.2624 18.5543 14.806C17.9614 14.3496 17.11 14.1213 16 14.1213C14.89 14.1213 14.0423 14.3496 13.457 14.806C12.8714 15.2624 12.218 15.4907 11.4967 15.4907C11.1742 15.4907 10.8862 15.4318 10.6327 15.314C10.3791 15.1964 10.1642 15.0411 9.988 14.848ZM22.087 4.511C22.9252 4.511 23.6348 4.80122 24.2157 5.38166C24.7966 5.96189 25.087 6.66889 25.087 7.50266C25.087 8.34089 24.7966 9.05044 24.2157 9.63133C23.6348 10.2122 22.9252 10.5027 22.087 10.5027C21.249 10.5027 20.5409 10.2122 19.9627 9.63133C19.3847 9.05044 19.0957 8.34089 19.0957 7.50266C19.0957 6.66889 19.3847 5.96189 19.9627 5.38166C20.5409 4.80122 21.249 4.511 22.087 4.511Z" fill="#777777"/>
</g>
</svg>
