<svg width="12" height="17" viewBox="0 0 12 17" fill="none" xmlns="http://www.w3.org/2000/svg">
<path d="M5.99992 16.4166C4.59186 16.4166 3.44124 16.2228 2.54804 15.835C1.65485 15.4471 1.20825 14.951 1.20825 14.3466C1.20825 14.0728 1.31749 13.813 1.53596 13.5673C1.75443 13.3216 2.06311 13.1066 2.462 12.9225C2.5877 12.8585 2.71929 12.8454 2.85679 12.8833C2.99429 12.9212 3.09506 13.003 3.15909 13.1287C3.22325 13.2544 3.2352 13.3855 3.19492 13.5221C3.15464 13.6587 3.07166 13.7573 2.94596 13.8179C2.79888 13.8912 2.6604 13.974 2.53054 14.0662C2.40082 14.1585 2.30728 14.2493 2.24992 14.3387C2.4177 14.614 2.86381 14.8546 3.58825 15.0606C4.31284 15.2666 5.11672 15.3696 5.99992 15.3696C6.88311 15.3696 7.687 15.2666 8.41159 15.0606C9.13603 14.8546 9.58214 14.614 9.74992 14.3387C9.69256 14.2493 9.59902 14.1585 9.46929 14.0662C9.33943 13.974 9.20277 13.8912 9.05929 13.8179C8.92999 13.7573 8.8452 13.6587 8.80492 13.5221C8.76464 13.3855 8.77658 13.2544 8.84075 13.1287C8.90478 13.003 9.00554 12.9212 9.14304 12.8833C9.28054 12.8454 9.41214 12.8585 9.53784 12.9225C9.93672 13.1066 10.2454 13.3216 10.4639 13.5673C10.6824 13.813 10.7916 14.0728 10.7916 14.3466C10.7916 14.951 10.345 15.4471 9.45179 15.835C8.5586 16.2228 7.40797 16.4166 5.99992 16.4166ZM6.02075 12.6052C7.47228 11.5066 8.55999 10.4118 9.28388 9.32081C10.0076 8.22984 10.3695 7.18595 10.3695 6.18915C10.3695 4.68345 9.89881 3.5472 8.95742 2.7804C8.01603 2.01373 7.0302 1.6304 5.99992 1.6304C4.98075 1.6304 3.9977 2.01373 3.05075 2.7804C2.10381 3.5472 1.63034 4.68345 1.63034 6.18915C1.63034 7.17706 1.99256 8.20054 2.717 9.25956C3.44159 10.3187 4.54284 11.4339 6.02075 12.6052ZM5.99992 13.6008C5.86992 13.6008 5.73902 13.5782 5.60721 13.5329C5.47554 13.4875 5.35304 13.422 5.23971 13.3364C3.68096 12.0851 2.5152 10.8664 1.74242 9.6806C0.969641 8.49463 0.583252 7.33081 0.583252 6.18915C0.583252 5.26179 0.747905 4.44929 1.07721 3.75165C1.40638 3.05401 1.83061 2.46984 2.34992 1.99915C2.86909 1.52859 3.44909 1.17498 4.08992 0.938313C4.73075 0.701646 5.36742 0.583313 5.99992 0.583313C6.63242 0.583313 7.27047 0.701646 7.91409 0.938313C8.55784 1.17498 9.13881 1.52859 9.657 1.99915C10.1751 2.46984 10.5978 3.05401 10.9253 3.75165C11.2528 4.44929 11.4166 5.26179 11.4166 6.18915C11.4166 7.33081 11.0311 8.49463 10.2601 9.6806C9.48902 10.8664 8.3177 12.0851 6.74617 13.3364C6.63645 13.422 6.51714 13.4875 6.38825 13.5329C6.25936 13.5782 6.12992 13.6008 5.99992 13.6008ZM5.99992 7.57852C6.41547 7.57852 6.7704 7.43269 7.06471 7.14102C7.35915 6.84936 7.50638 6.49304 7.50638 6.07206C7.50638 5.65651 7.35915 5.30158 7.06471 5.00727C6.7704 4.71283 6.41547 4.56561 5.99992 4.56561C5.58964 4.56561 5.23603 4.71283 4.93909 5.00727C4.642 5.30158 4.49346 5.65651 4.49346 6.07206C4.49346 6.49304 4.642 6.84936 4.93909 7.14102C5.23603 7.43269 5.58964 7.57852 5.99992 7.57852Z" fill="#777777"/>
</svg>
