<svg width="24" height="24" viewBox="0 0 24 24" fill="none" xmlns="http://www.w3.org/2000/svg">
<mask id="mask0_1190_1742" style="mask-type:alpha" maskUnits="userSpaceOnUse" x="0" y="0" width="24" height="24">
<rect width="24" height="24" fill="#D9D9D9"/>
</mask>
<g mask="url(#mask0_1190_1742)">
<path d="M17.4935 18.75H15.1217C14.9437 18.75 14.7946 18.6895 14.6742 18.5685C14.5537 18.4473 14.4935 18.2973 14.4935 18.1185C14.4935 17.9395 14.5537 17.7906 14.6742 17.6717C14.7946 17.5529 14.9437 17.4935 15.1217 17.4935H17.4935V15.1217C17.4935 14.9437 17.5541 14.7946 17.6753 14.6742C17.7962 14.5537 17.9462 14.4935 18.1252 14.4935C18.3041 14.4935 18.4529 14.5537 18.5717 14.6742C18.6906 14.7946 18.75 14.9437 18.75 15.1217V17.4935H21.1217C21.2997 17.4935 21.449 17.5541 21.5695 17.6752C21.6898 17.7962 21.75 17.9462 21.75 18.1252C21.75 18.3041 21.6898 18.4529 21.5695 18.5717C21.449 18.6906 21.2997 18.75 21.1217 18.75H18.75V21.1217C18.75 21.2997 18.6895 21.449 18.5685 21.5695C18.4473 21.6898 18.2973 21.75 18.1185 21.75C17.9395 21.75 17.7906 21.6898 17.6717 21.5695C17.5529 21.449 17.4935 21.2997 17.4935 21.1217V18.75ZM5.06425 19.5C4.63442 19.5 4.26625 19.3467 3.95975 19.0402C3.65325 18.7337 3.5 18.3656 3.5 17.9357V5.82048C3.5 5.39065 3.65325 5.02257 3.95975 4.71624C4.26625 4.40974 4.63442 4.25648 5.06425 4.25648H6.7565V3.05898C6.7565 2.87032 6.82058 2.71074 6.94875 2.58024C7.07692 2.4499 7.23575 2.38474 7.42525 2.38474C7.61942 2.38474 7.78192 2.4499 7.91275 2.58024C8.04358 2.71074 8.109 2.87032 8.109 3.05898V4.25648H13.9295V3.04148C13.9295 2.85282 13.9921 2.69615 14.1172 2.57148C14.2424 2.44698 14.3975 2.38474 14.5825 2.38474C14.7722 2.38474 14.9308 2.44748 15.0585 2.57298C15.1862 2.69848 15.25 2.85407 15.25 3.03974V4.25648H16.9358C17.3656 4.25648 17.7337 4.40974 18.0402 4.71624C18.3467 5.02257 18.5 5.39065 18.5 5.82048V11.759C18.5 11.937 18.4395 12.0862 18.3185 12.2065C18.1973 12.327 18.0473 12.3872 17.8685 12.3872C17.6895 12.3872 17.5406 12.327 17.4217 12.2065C17.3029 12.0862 17.2435 11.937 17.2435 11.759V10.186H4.7565V17.9357C4.7565 18.0127 4.7885 18.0833 4.8525 18.1475C4.91667 18.2115 4.98725 18.2435 5.06425 18.2435H11.7597C11.9376 18.2435 12.0868 18.3041 12.2072 18.4252C12.3276 18.5462 12.3877 18.6962 12.3877 18.8752C12.3877 19.0541 12.3276 19.2029 12.2072 19.3217C12.0868 19.4406 11.9376 19.5 11.7597 19.5H5.06425ZM4.7565 8.92948H17.2435V5.82048C17.2435 5.74365 17.2115 5.67315 17.1475 5.60898C17.0833 5.54482 17.0127 5.51273 16.9358 5.51273H5.06425C4.98725 5.51273 4.91667 5.54482 4.8525 5.60898C4.7885 5.67315 4.7565 5.74365 4.7565 5.82048V8.92948Z" fill="white"/>
</g>
</svg>
