<svg width="20" height="22" viewBox="0 0 20 22" fill="none" xmlns="http://www.w3.org/2000/svg">
<path d="M17.9358 19.5H14.2443C14.0663 19.5 13.9171 19.4395 13.7968 19.3185C13.6763 19.1973 13.616 19.0473 13.616 18.8685C13.616 18.6895 13.6763 18.5406 13.7968 18.4218C13.9171 18.3029 14.0663 18.2435 14.2443 18.2435H17.9358C18.0128 18.2435 18.0833 18.2115 18.1475 18.1475C18.2115 18.0833 18.2435 18.0128 18.2435 17.9358V8.18602H3.75652V12.2308C3.75652 12.4088 3.69593 12.558 3.57477 12.6785C3.45377 12.7989 3.30377 12.859 3.12477 12.859C2.94593 12.859 2.7971 12.7989 2.67827 12.6785C2.55943 12.558 2.50002 12.4088 2.50002 12.2308V3.82052C2.50002 3.39068 2.65327 3.0226 2.95977 2.71627C3.26627 2.40977 3.63443 2.25652 4.06427 2.25652H5.75652V1.05901C5.75652 0.870348 5.8206 0.710766 5.94877 0.580266C6.07693 0.449932 6.23577 0.384766 6.42527 0.384766C6.61943 0.384766 6.78193 0.449932 6.91277 0.580266C7.0436 0.710766 7.10902 0.870348 7.10902 1.05901V2.25652H14.9295V1.04151C14.9295 0.852848 14.9921 0.696182 15.1173 0.571515C15.2424 0.447015 15.3975 0.384766 15.5825 0.384766C15.7722 0.384766 15.9309 0.447515 16.0585 0.573015C16.1862 0.698515 16.25 0.854099 16.25 1.03977V2.25652H17.9358C18.3656 2.25652 18.7338 2.40977 19.0403 2.71627C19.3468 3.0226 19.5 3.39068 19.5 3.82052V17.9358C19.5 18.3656 19.3468 18.7338 19.0403 19.0403C18.7338 19.3468 18.3656 19.5 17.9358 19.5ZM9.06227 17.6283H1.00002C0.822015 17.6283 0.672848 17.5677 0.552515 17.4465C0.432015 17.3255 0.371765 17.1756 0.371765 16.9968C0.371765 16.8178 0.432015 16.6688 0.552515 16.55C0.672848 16.4312 0.822015 16.3718 1.00002 16.3718H9.06227L6.55777 13.8328C6.4441 13.7123 6.38468 13.5688 6.37952 13.4023C6.37435 13.2358 6.43377 13.0903 6.55777 12.9658C6.6761 12.8463 6.82135 12.7865 6.99352 12.7865C7.16585 12.7865 7.31227 12.8468 7.43277 12.9673L10.927 16.452C11.0828 16.6087 11.1608 16.7915 11.1608 17.0005C11.1608 17.2095 11.0828 17.392 10.927 17.548L7.43277 21.0423C7.31227 21.1628 7.16727 21.2223 6.99777 21.2208C6.82827 21.2193 6.68102 21.156 6.55602 21.031C6.43668 20.9117 6.37702 20.768 6.37702 20.6C6.37702 20.432 6.43727 20.2878 6.55777 20.1673L9.06227 17.6283Z" fill="#A5210D"/>
</svg>
