<svg width="32" height="32" viewBox="0 0 32 32" fill="none" xmlns="http://www.w3.org/2000/svg">
<mask id="mask0_490_846" style="mask-type:alpha" maskUnits="userSpaceOnUse" x="0" y="0" width="32" height="32">
<rect width="32" height="32" fill="#D9D9D9"/>
</mask>
<g mask="url(#mask0_490_846)">
<path d="M6.30931 24.2213C5.3402 23.0545 4.60187 21.7651 4.09431 20.3533C3.58698 18.9416 3.33331 17.4905 3.33331 16C3.33331 14.4947 3.58698 13.0376 4.09431 11.6287C4.60187 10.2198 5.3402 8.92901 6.30931 7.75634C7.6142 8.72857 8.62431 9.94012 9.33965 11.391C10.0552 12.8419 10.413 14.378 10.413 15.9993C10.413 17.6118 10.0552 19.1437 9.33965 20.595C8.62431 22.0461 7.6142 23.2549 6.30931 24.2213ZM16.0003 28.6667C14.4428 28.6667 12.9366 28.3956 11.482 27.8533C10.0273 27.3111 8.72565 26.505 7.57698 25.435C9.00209 24.2686 10.1113 22.8665 10.9046 21.2287C11.6982 19.5907 12.095 17.8478 12.095 16C12.095 14.1522 11.6982 12.4071 10.9046 10.7647C10.1113 9.12223 9.00209 7.71946 7.57698 6.55634C8.72565 5.49212 10.0272 4.6889 11.4816 4.14668C12.9361 3.60446 14.4421 3.33334 15.9996 3.33334C17.5572 3.33334 19.0633 3.60446 20.518 4.14668C21.9726 4.6889 23.2743 5.49212 24.423 6.55634C22.9979 7.71946 21.8886 9.12223 21.0953 10.7647C20.3018 12.4071 19.905 14.1522 19.905 16C19.905 17.8478 20.3018 19.5907 21.0953 21.2287C21.8886 22.8665 22.9979 24.2686 24.423 25.435C23.2743 26.505 21.9728 27.3111 20.5183 27.8533C19.0639 28.3956 17.5579 28.6667 16.0003 28.6667ZM25.6906 24.2213C24.3858 23.2549 23.3793 22.0462 22.6713 20.5953C21.9633 19.1445 21.6093 17.6129 21.6093 16.0007C21.6093 14.3791 21.9633 12.8427 22.6713 11.3913C23.3793 9.94023 24.3858 8.72857 25.6906 7.75634C26.6598 8.92901 27.3981 10.2198 27.9056 11.6287C28.413 13.0376 28.6666 14.4947 28.6666 16C28.6666 17.4905 28.413 18.9416 27.9056 20.3533C27.3981 21.7651 26.6598 23.0545 25.6906 24.2213Z" fill="#A5210D"/>
</g>
</svg>
