<svg width="32" height="32" viewBox="0 0 32 32" fill="none" xmlns="http://www.w3.org/2000/svg">
<mask id="mask0_490_808" style="mask-type:alpha" maskUnits="userSpaceOnUse" x="0" y="0" width="32" height="32">
<rect width="32" height="32" fill="#D9D9D9"/>
</mask>
<g mask="url(#mask0_490_808)">
<path d="M7.19997 13.1623C7.98219 13.1623 8.73919 13.3092 9.47097 13.603C10.2025 13.8968 10.8643 14.3145 11.4563 14.8563L24.1453 26.9913H25.3333C25.8031 26.9913 26.1969 26.8324 26.5146 26.5147C26.8324 26.1969 26.9913 25.8031 26.9913 25.3333C26.9913 25.1211 26.9715 24.8957 26.932 24.657C26.8922 24.4183 26.7531 24.1797 26.5146 23.941L20.4556 17.8907L18.012 10.5453L14.4486 11.4273C13.9029 11.5653 13.4124 11.466 12.9773 11.1293C12.5422 10.7927 12.3246 10.3453 12.3246 9.78733V5.95466L10.9676 5.276L5.50864 12.6033C5.4373 12.686 5.37775 12.7733 5.32997 12.8653C5.28197 12.9573 5.23519 13.0563 5.18964 13.1623H7.19997ZM7.19997 14.8377H5.04097C5.09919 15.0952 5.19219 15.3341 5.31997 15.5543C5.44797 15.7745 5.60908 15.9755 5.8033 16.1573L16.8546 26.206C17.1322 26.4744 17.4431 26.6724 17.7873 26.8C18.1313 26.9275 18.4911 26.9913 18.8666 26.9913H21.7136L10.3103 16.077C9.89208 15.6734 9.41286 15.366 8.87264 15.1547C8.33242 14.9433 7.77486 14.8377 7.19997 14.8377ZM18.8666 28.6667C18.2855 28.6667 17.7313 28.5616 17.204 28.3513C16.6766 28.1411 16.1915 27.8393 15.7486 27.446L4.9153 17.6127C4.0213 16.7904 3.51964 15.7871 3.4103 14.6027C3.30097 13.418 3.60608 12.3384 4.32564 11.364L9.47197 4.49733C9.75553 4.11444 10.1329 3.86111 10.604 3.73733C11.0749 3.61333 11.5265 3.66844 11.959 3.90266L12.905 4.36933C13.2605 4.55399 13.532 4.80399 13.7193 5.11933C13.9064 5.43466 14 5.78377 14 6.16666V9.82566L17.3 8.97433C17.8042 8.83944 18.2862 8.90144 18.746 9.16033C19.206 9.41922 19.5214 9.79399 19.6923 10.2847L21.9103 16.959L27.6923 22.741C28.0683 23.117 28.3246 23.5221 28.4613 23.9563C28.5982 24.3905 28.6666 24.8495 28.6666 25.3333C28.6666 26.2564 28.344 27.0428 27.6986 27.6923C27.0533 28.3419 26.2649 28.6667 25.3333 28.6667H18.8666Z" fill="#777777"/>
</g>
</svg>
