<svg width="32" height="32" viewBox="0 0 32 32" fill="none" xmlns="http://www.w3.org/2000/svg">
<mask id="mask0_397_200" style="mask-type:alpha" maskUnits="userSpaceOnUse" x="0" y="0" width="32" height="32">
<rect width="32" height="32" fill="#D9D9D9"/>
</mask>
<g mask="url(#mask0_397_200)">
<path d="M7.2 13.1624C7.98222 13.1624 8.73922 13.3092 9.471 13.603C10.2026 13.8968 10.8643 14.3146 11.4563 14.8564L24.1453 26.9914H25.3333C25.8031 26.9914 26.1969 26.8325 26.5147 26.5147C26.8324 26.1969 26.9913 25.8031 26.9913 25.3334C26.9913 25.1211 26.9716 24.8957 26.932 24.657C26.8922 24.4184 26.7531 24.1797 26.5147 23.941L20.4557 17.8907L18.012 10.5454L14.4487 11.4274C13.9029 11.5654 13.4124 11.466 12.9773 11.1294C12.5422 10.7927 12.3247 10.3454 12.3247 9.78736V5.95469L10.9677 5.27603L5.50867 12.6034C5.43733 12.686 5.37778 12.7734 5.33 12.8654C5.282 12.9574 5.23522 13.0564 5.18967 13.1624H7.2ZM7.2 14.8377H5.041C5.09922 15.0952 5.19222 15.3341 5.32 15.5544C5.448 15.7746 5.60911 15.9756 5.80333 16.1574L16.8547 26.206C17.1322 26.4745 17.4431 26.6725 17.7873 26.8C18.1313 26.9276 18.4911 26.9914 18.8667 26.9914H21.7137L10.3103 16.077C9.89211 15.6735 9.41289 15.366 8.87267 15.1547C8.33245 14.9434 7.77489 14.8377 7.2 14.8377ZM18.8667 28.6667C18.2856 28.6667 17.7313 28.5616 17.204 28.3514C16.6767 28.1411 16.1916 27.8394 15.7487 27.446L4.91533 17.6127C4.02133 16.7905 3.51967 15.7871 3.41033 14.6027C3.301 13.418 3.60611 12.3385 4.32567 11.364L9.472 4.49736C9.75556 4.11447 10.1329 3.86114 10.604 3.73736C11.0749 3.61336 11.5266 3.66847 11.959 3.90269L12.905 4.36936C13.2606 4.55403 13.532 4.80403 13.7193 5.11936C13.9064 5.43469 14 5.7838 14 6.16669V9.82569L17.3 8.97436C17.8042 8.83947 18.2862 8.90147 18.746 9.16036C19.206 9.41925 19.5214 9.79402 19.6923 10.2847L21.9103 16.959L27.6923 22.741C28.0683 23.117 28.3247 23.5221 28.4613 23.9564C28.5982 24.3906 28.6667 24.8496 28.6667 25.3334C28.6667 26.2565 28.344 27.0428 27.6987 27.6924C27.0533 28.3419 26.2649 28.6667 25.3333 28.6667H18.8667Z" fill="#777777"/>
</g>
</svg>
