<svg width="32" height="32" viewBox="0 0 32 32" fill="none" xmlns="http://www.w3.org/2000/svg">
<mask id="mask0_542_563" style="mask-type:alpha" maskUnits="userSpaceOnUse" x="0" y="0" width="32" height="32">
<rect width="32" height="32" fill="#D9D9D9"/>
</mask>
<g mask="url(#mask0_542_563)">
<path d="M26.6087 13.1623C26.0063 10.927 24.8214 9.05945 23.054 7.55968C21.2865 6.06012 19.2144 5.2189 16.8377 5.03601V7.45134L26.6087 13.1623ZM9.95904 18.4837L15.1624 15.441V5.03601C14.2297 5.13801 13.325 5.32968 12.4484 5.61101C11.5717 5.89257 10.7419 6.29857 9.95904 6.82901V18.4837ZM6.08904 20.752L8.28371 19.47V8.16734C7.21304 9.18734 6.3996 10.381 5.84337 11.7483C5.28693 13.1155 5.00871 14.5342 5.00871 16.0047C5.00871 16.8447 5.0956 17.6576 5.26937 18.4433C5.44315 19.2293 5.71637 19.9989 6.08904 20.752ZM11.0634 25.8427L21.2667 19.9657L16 16.887L6.90437 22.1983C7.43082 22.9721 8.04315 23.6771 8.74137 24.3133C9.43982 24.9496 10.2138 25.4593 11.0634 25.8427ZM16 26.9913C17.8438 26.9913 19.5625 26.5668 21.156 25.7177C22.7496 24.8683 24.0628 23.6935 25.0957 22.193L22.9147 20.93L13.1164 26.6C13.5739 26.7447 14.0488 26.8461 14.541 26.9043C15.0333 26.9623 15.5196 26.9913 16 26.9913ZM25.9197 20.73C26.3368 19.8896 26.6306 19.0225 26.801 18.1287C26.9713 17.2349 27.0262 16.3093 26.9657 15.352L16.8377 9.41034V15.441L25.9197 20.73ZM16.0024 28.6667C14.2504 28.6667 12.6036 28.3342 11.062 27.6693C9.52049 27.0045 8.1796 26.1021 7.03937 24.9623C5.89915 23.8226 4.99637 22.4822 4.33104 20.9413C3.66593 19.4005 3.33337 17.7541 3.33337 16.0023C3.33337 14.2503 3.66582 12.6036 4.33071 11.062C4.9956 9.52045 5.89793 8.17957 7.03771 7.03934C8.17749 5.89912 9.51782 4.99634 11.0587 4.33101C12.5996 3.6659 14.2459 3.33334 15.9977 3.33334C17.7497 3.33334 19.3965 3.66579 20.938 4.33068C22.4796 4.99557 23.8205 5.8979 24.9607 7.03768C26.1009 8.17745 27.0037 9.51779 27.669 11.0587C28.3342 12.5996 28.6667 14.2459 28.6667 15.9977C28.6667 17.7497 28.3343 19.3965 27.6694 20.938C27.0045 22.4796 26.1022 23.8205 24.9624 24.9607C23.8226 26.1009 22.4823 27.0037 20.9414 27.669C19.4005 28.3341 17.7542 28.6667 16.0024 28.6667Z" fill="#777777"/>
</g>
</svg>
