<svg width="21" height="18" viewBox="0 0 21 18" fill="none" xmlns="http://www.w3.org/2000/svg">
<path d="M13.6398 12.782H16.1295C16.3432 12.782 16.528 12.7054 16.684 12.5523C16.84 12.3991 16.918 12.215 16.918 12V8.00001C16.918 7.78635 16.84 7.60151 16.684 7.44551C16.528 7.28951 16.3432 7.21151 16.1295 7.21151H13.6398C13.4248 7.21151 13.2407 7.28951 13.0875 7.44551C12.9344 7.60151 12.8578 7.78635 12.8578 8.00001V12C12.8578 12.215 12.9344 12.3991 13.0875 12.5523C13.2407 12.7054 13.4248 12.782 13.6398 12.782ZM13.9283 11.7115H15.8475V8.28201H13.9283V11.7115ZM4.87054 12.782H7.61029C7.76396 12.782 7.89104 12.7318 7.99154 12.6313C8.09204 12.5308 8.14229 12.4036 8.14229 12.2498C8.14229 12.0961 8.09204 11.968 7.99154 11.8655C7.89104 11.7628 7.76396 11.7115 7.61029 11.7115H5.15254V10.4898H7.32179C7.53546 10.4898 7.72562 10.4064 7.89229 10.2398C8.05896 10.0731 8.14229 9.88293 8.14229 9.66926V8.00001C8.14229 7.78635 8.06571 7.60151 7.91254 7.44551C7.75937 7.28951 7.57529 7.21151 7.36029 7.21151H4.62054C4.46821 7.21151 4.34037 7.26335 4.23704 7.36701C4.13371 7.47051 4.08204 7.5991 4.08204 7.75276C4.08204 7.9066 4.13371 8.03326 4.23704 8.13276C4.34037 8.23226 4.46821 8.28201 4.62054 8.28201H7.07179V9.51026H4.90904C4.69671 9.51026 4.50579 9.5936 4.33629 9.76026C4.16679 9.92693 4.08204 10.1171 4.08204 10.3308V12C4.08204 12.215 4.16004 12.3991 4.31604 12.5523C4.47204 12.7054 4.65687 12.782 4.87054 12.782ZM2.54504 17.3943C2.11521 17.3943 1.74704 17.241 1.44054 16.9345C1.13404 16.628 0.980789 16.2598 0.980789 15.83V4.22751C0.980789 3.79785 1.13404 3.42976 1.44054 3.12326C1.74704 2.81676 2.11521 2.66351 2.54504 2.66351H5.87179V1.29176C5.87179 1.11376 5.93237 0.964514 6.05354 0.844014C6.17454 0.723681 6.32446 0.663513 6.50329 0.663513C6.68229 0.663513 6.83121 0.723681 6.95004 0.844014C7.06887 0.964514 7.12829 1.11376 7.12829 1.29176V2.66351H13.8718V1.29176C13.8718 1.11376 13.9324 0.964514 14.0535 0.844014C14.1745 0.723681 14.3245 0.663513 14.5033 0.663513C14.6823 0.663513 14.8312 0.723681 14.95 0.844014C15.0689 0.964514 15.1283 1.11376 15.1283 1.29176V2.66351H18.455C18.8849 2.66351 19.253 2.81676 19.5595 3.12326C19.866 3.42976 20.0193 3.79785 20.0193 4.22751V15.83C20.0193 16.2598 19.866 16.628 19.5595 16.9345C19.253 17.241 18.8849 17.3943 18.455 17.3943H2.54504ZM10.4995 8.89551C10.6717 8.89551 10.8142 8.83926 10.927 8.72676C11.0399 8.61426 11.0963 8.47193 11.0963 8.29976C11.0963 8.12776 11.04 7.98535 10.9273 7.87251C10.8148 7.75968 10.6725 7.70326 10.5005 7.70326C10.3284 7.70326 10.1859 7.75951 10.073 7.87201C9.96021 7.98451 9.90379 8.12685 9.90379 8.29901C9.90379 8.47101 9.96012 8.61343 10.0728 8.72626C10.1853 8.8391 10.3275 8.89551 10.4995 8.89551ZM10.4995 12.3545C10.6717 12.3545 10.8142 12.2983 10.927 12.1858C11.0399 12.0733 11.0963 11.9309 11.0963 11.7588C11.0963 11.5868 11.04 11.4443 10.9273 11.3315C10.8148 11.2187 10.6725 11.1623 10.5005 11.1623C10.3284 11.1623 10.1859 11.2185 10.073 11.331C9.96021 11.4435 9.90379 11.5858 9.90379 11.758C9.90379 11.93 9.96012 12.0724 10.0728 12.1853C10.1853 12.2981 10.3275 12.3545 10.4995 12.3545ZM10.5003 5.42626C10.654 5.42626 10.782 5.37526 10.8845 5.27326C10.9872 5.17126 11.0385 5.04226 11.0385 4.88626C11.0385 4.73226 10.9867 4.60535 10.883 4.50551C10.7795 4.40568 10.651 4.35576 10.4973 4.35576C10.3435 4.35576 10.2168 4.40643 10.1173 4.50776C10.0178 4.60926 9.96804 4.73751 9.96804 4.89251C9.96804 5.04751 10.0183 5.17526 10.1188 5.27576C10.2193 5.3761 10.3465 5.42626 10.5003 5.42626ZM10.5003 15.702C10.654 15.702 10.782 15.651 10.8845 15.549C10.9872 15.447 11.0385 15.318 11.0385 15.162C11.0385 15.0078 10.9867 14.8808 10.883 14.781C10.7795 14.6813 10.651 14.6315 10.4973 14.6315C10.3435 14.6315 10.2168 14.6822 10.1173 14.7835C10.0178 14.8848 9.96804 15.013 9.96804 15.168C9.96804 15.3232 10.0183 15.4509 10.1188 15.5513C10.2193 15.6518 10.3465 15.702 10.5003 15.702Z" fill="#A5210D"/>
</svg>
