<svg width="32" height="32" viewBox="0 0 32 32" fill="none" xmlns="http://www.w3.org/2000/svg">
<path d="M9.86456 20.7997L4.86789 24.7863C4.68229 24.933 4.5155 25.1032 4.3675 25.297C3.20113 26.8236 5.06348 28.8876 6.43625 27.5903C6.60664 27.4285 6.75704 27.2463 6.88744 27.0436L10.4609 21.4651M12.4145 18.6744C10.0674 16.0611 7.53182 18.2051 7.53182 18.2051L12.7781 24.045C12.7781 24.045 14.7628 21.2877 12.4145 18.6744ZM12.4145 18.6744L25.5998 4M22.1354 20.7997L27.1321 24.7863C27.3177 24.933 27.4845 25.1032 27.6325 25.297C28.7989 26.8236 26.9365 28.8876 25.5638 27.5903C25.394 27.429 25.2425 27.2455 25.1126 27.0436L21.5379 21.4651M19.5855 18.6744C21.9326 16.0611 24.4682 18.2051 24.4682 18.2051L21.8162 21.1571L19.2219 24.0437C19.2219 24.0437 17.2372 21.2877 19.5855 18.6744ZM19.5855 18.6744L6.40025 4" stroke="#777777" stroke-width="1.75" stroke-linecap="round" stroke-linejoin="round"/>
</svg>
