<svg width="32" height="32" viewBox="0 0 32 32" fill="none" xmlns="http://www.w3.org/2000/svg">
<mask id="mask0_510_68" style="mask-type:alpha" maskUnits="userSpaceOnUse" x="0" y="0" width="32" height="32">
<rect width="32" height="32" fill="#D9D9D9"/>
</mask>
<g mask="url(#mask0_510_68)">
<path d="M12.677 25.4907L6.49563 19.3093C6.33785 20.2131 6.27507 21.2597 6.30729 22.449C6.33951 23.6386 6.43996 24.5852 6.60863 25.289C7.23129 25.4763 8.1774 25.597 9.44696 25.651C10.7165 25.7048 11.7932 25.6513 12.677 25.4907ZM14.7213 25.171C16.074 24.9254 17.3606 24.4988 18.5813 23.891C19.8017 23.2834 20.8404 22.5511 21.6973 21.694C22.524 20.8667 23.2382 19.8596 23.84 18.6727C24.4417 17.4858 24.8854 16.1789 25.171 14.752L17.248 6.829C15.9151 7.09745 14.6425 7.53745 13.4303 8.149C12.2181 8.76078 11.2005 9.47667 10.3776 10.2967C9.55496 11.1164 8.84374 12.1337 8.24396 13.3483C7.64418 14.5628 7.17251 15.8729 6.82896 17.2787L14.7213 25.171ZM12.7486 20.4307L11.5693 19.2513L19.2513 11.5693L20.4306 12.7487L12.7486 20.4307ZM25.5043 12.7213C25.6667 11.776 25.7333 10.7084 25.704 9.51867C25.6744 8.32911 25.5702 7.39322 25.3913 6.711C24.7628 6.52478 23.8138 6.40334 22.5443 6.34667C21.2747 6.29 20.201 6.34422 19.323 6.50934L25.5043 12.7213ZM10.223 27.3333C9.0834 27.3333 8.04152 27.2582 7.09729 27.108C6.15285 26.9578 5.57763 26.7843 5.37163 26.5877C5.17629 26.3741 5.00996 25.8104 4.87263 24.8967C4.73529 23.9827 4.66663 22.9792 4.66663 21.8863C4.66663 19.2528 5.05174 16.8129 5.82196 14.5667C6.59196 12.3204 7.6804 10.494 9.08729 9.08733C10.494 7.68045 12.325 6.592 14.5803 5.822C16.8354 5.05178 19.2855 4.66667 21.9306 4.66667C23.0517 4.66667 24.0517 4.738 24.9306 4.88067C25.8093 5.02356 26.3537 5.19367 26.564 5.391C26.7913 5.61011 26.9764 6.17022 27.1193 7.07134C27.262 7.97245 27.3333 8.97967 27.3333 10.093C27.3333 12.7519 26.9504 15.2079 26.1846 17.461C25.4188 19.7143 24.3367 21.5401 22.9383 22.9383C21.539 24.3379 19.7163 25.4202 17.4703 26.1853C15.2245 26.9507 12.8087 27.3333 10.223 27.3333Z" fill="#777777"/>
</g>
</svg>
