<svg width="19" height="19" viewBox="0 0 19 19" fill="none" xmlns="http://www.w3.org/2000/svg">
<rect width="19" height="19" rx="9.5" fill="#777777"/>
<mask id="mask0_1101_776" style="mask-type:alpha" maskUnits="userSpaceOnUse" x="0" y="0" width="19" height="19">
<rect width="19" height="19" fill="#D9D9D9"/>
</mask>
<g mask="url(#mask0_1101_776)">
<path d="M9.00264 14.8438H7.91667C7.77575 14.8438 7.65766 14.7959 7.5624 14.7001C7.467 14.6041 7.4193 14.4854 7.4193 14.3438C7.4193 14.2021 7.467 14.0842 7.5624 13.9901C7.65766 13.8961 7.77575 13.849 7.91667 13.849H9.00264V11.6496C7.95592 11.52 7.08443 11.0605 6.38816 10.2711C5.69189 9.48154 5.34375 8.55951 5.34375 7.50501C5.34375 6.35459 5.74895 5.37694 6.55935 4.57208C7.36989 3.76709 8.3501 3.36459 9.5 3.36459C10.6499 3.36459 11.6301 3.76709 12.4406 4.57208C13.251 5.37694 13.6562 6.35432 13.6562 7.50422C13.6562 8.55845 13.3081 9.48055 12.6118 10.2705C11.9156 11.0603 11.0441 11.52 9.99736 11.6496V13.849H11.0833C11.2243 13.849 11.3423 13.897 11.4376 13.9929C11.533 14.0887 11.5807 14.2075 11.5807 14.3492C11.5807 14.4907 11.533 14.6086 11.4376 14.7026C11.3423 14.7967 11.2243 14.8438 11.0833 14.8438H9.99736V15.9297C9.99736 16.0706 9.9494 16.1888 9.85348 16.2842C9.75769 16.3795 9.639 16.4271 9.49743 16.4271C9.35572 16.4271 9.23783 16.3795 9.14375 16.2842C9.04967 16.1888 9.00264 16.0706 9.00264 15.9297V14.8438ZM9.49861 10.6824C10.3741 10.6824 11.1201 10.3746 11.7367 9.75908C12.3532 9.14343 12.6615 8.39781 12.6615 7.52223C12.6615 6.64678 12.3538 5.90076 11.7382 5.28419C11.1226 4.66761 10.377 4.35932 9.50139 4.35932C8.62593 4.35932 7.87992 4.66708 7.26334 5.2826C6.64677 5.89826 6.33848 6.64387 6.33848 7.51946C6.33848 8.39491 6.64624 9.14092 7.26176 9.7575C7.87741 10.3741 8.62303 10.6824 9.49861 10.6824Z" fill="white"/>
</g>
</svg>
