<?xml version="1.0" encoding="utf-8"?>
<!-- Generator: Adobe Illustrator 27.3.1, SVG Export Plug-In . SVG Version: 6.00 Build 0)  -->
<svg version="1.1" id="Layer_1" xmlns="http://www.w3.org/2000/svg" xmlns:xlink="http://www.w3.org/1999/xlink" x="0px" y="0px"
	 viewBox="0 0 32 32" style="enable-background:new 0 0 32 32;" xml:space="preserve">
<style type="text/css">
	.st0{fill:#A5210D;stroke:#A5210D;stroke-miterlimit:10;}
	.st1{fill:none;stroke:#A5210D;stroke-width:1.75;}
	.st2{fill:none;stroke:#A5210D;stroke-width:1.25;}
</style>
<path class="st0" d="M14,30.7c1.1,0,2-0.9,2-2V24h-4v3.3v1.3C12,29.8,12.9,30.7,14,30.7z"/>
<path class="st1" d="M16,24c2.2-1.3,7.3-5.3,8-10.7C24.4,10,24.2,3.3,20,2c-0.2-0.1-0.4-0.1-0.7-0.2C16.8,1.2,11.9,0.5,8,2
	C5.7,2.9,3.5,5.3,4,13.3C5.3,18,6,20,12,24 M16,24v4.7c0,1.1-0.9,2-2,2l0,0c-1.1,0-2-0.9-2-2v-1.3V24 M16,24h-4"/>
<path class="st2" d="M8.7,2.1v19 M14,1.8v21.6 M19.3,2v19.7 M4.7,8.7h18.7 M4.7,14h18.7 M6.7,19.3h14.7"/>
<circle class="st2" cx="26.3" cy="25.3" r="2.7"/>
</svg>
