<svg width="32" height="32" viewBox="0 0 32 32" fill="none" xmlns="http://www.w3.org/2000/svg">
<rect width="32" height="32" fill="white"/>
<path d="M14 30.6666C15.1045 30.6666 16 29.7712 16 28.6666L16 24L12 24V27.3333V28.6666C12 29.7712 12.8954 30.6666 14 30.6666Z" fill="#A5210D"/>
<path d="M16 24C18.2222 22.6667 23.3334 18.6666 24 13.3333C24.4444 9.99999 24.1792 3.25377 20 1.99999C19.8026 1.94079 19.5794 1.87948 19.3333 1.81803C16.8087 1.18753 11.8878 0.542079 7.99999 1.99999C5.68072 2.86969 3.46666 5.33334 3.99999 13.3333C5.33331 18 5.99998 20 12 24M16 24L16 28.6666C16 29.7712 15.1045 30.6666 14 30.6666V30.6666C12.8954 30.6666 12 29.7712 12 28.6666V27.3333V24M16 24L12 24" stroke="#A5210D" stroke-width="1.75"/>
<path d="M8.66669 2.08955V21.1139M14 1.85712V23.3333M19.3334 2.00001V21.7349M4.66669 8.66668H23.3334M4.66669 14H23.3334M6.67425 19.3333H21.3334" stroke="#A5210D" stroke-width="1.25"/>
<circle cx="26.3333" cy="25.3333" r="2.70833" fill="#A5210D" stroke="#A5210D" stroke-width="1.25"/>
</svg>
