<svg width="414" height="896" viewBox="0 0 414 896" fill="none" xmlns="http://www.w3.org/2000/svg">
<rect width="414" height="896" fill="#004346"/>
<path d="M162.614 472.64C159.072 472.64 156.47 471.445 154.806 469.056C153.142 466.624 152.758 463.467 153.654 459.584L158.326 439.36H167.926L163.446 458.752C162.976 460.885 163.083 462.485 163.766 463.552C164.448 464.576 165.686 465.088 167.478 465.088C169.654 465.088 171.552 464.363 173.174 462.912C174.795 461.461 175.904 459.435 176.502 456.832L175.542 464.704C174.304 467.051 172.47 468.971 170.038 470.464C167.648 471.915 165.174 472.64 162.614 472.64ZM173.174 472L174.966 464.32H174.774L180.534 439.36H190.134L182.582 472H173.174ZM204.693 472.832C201.621 472.832 198.933 472.384 196.629 471.488C194.325 470.549 192.533 469.248 191.253 467.584C189.973 465.92 189.355 464 189.397 461.824H197.973C197.973 462.763 198.251 463.573 198.805 464.256C199.36 464.939 200.171 465.472 201.237 465.856C202.304 466.197 203.584 466.368 205.077 466.368C206.955 466.368 208.363 466.091 209.301 465.536C210.283 464.981 210.773 464.171 210.773 463.104C210.773 462.379 210.517 461.781 210.005 461.312C209.536 460.843 208.768 460.416 207.701 460.032L202.773 458.368C199.445 457.259 197.077 456.021 195.669 454.656C194.304 453.248 193.621 451.499 193.621 449.408C193.621 447.232 194.219 445.355 195.413 443.776C196.608 442.155 198.272 440.917 200.405 440.064C202.539 439.168 205.035 438.72 207.893 438.72C210.709 438.72 213.163 439.147 215.253 440C217.387 440.811 219.051 441.963 220.245 443.456C221.44 444.907 222.016 446.592 221.973 448.512H213.397C213.44 447.787 213.227 447.168 212.757 446.656C212.288 446.144 211.605 445.76 210.709 445.504C209.813 445.248 208.725 445.12 207.445 445.12C205.696 445.12 204.395 445.355 203.541 445.824C202.688 446.293 202.261 446.997 202.261 447.936C202.261 448.619 202.539 449.173 203.093 449.6C203.691 450.027 204.736 450.496 206.229 451.008L211.669 452.864C214.229 453.717 216.149 454.912 217.429 456.448C218.752 457.941 219.413 459.776 219.413 461.952C219.413 464.128 218.795 466.048 217.557 467.712C216.32 469.333 214.592 470.592 212.373 471.488C210.197 472.384 207.637 472.832 204.693 472.832ZM237.778 472.704C233.725 472.704 230.845 471.595 229.138 469.376C227.432 467.157 227.048 463.979 227.986 459.84L234.386 432.064L244.818 428.48L237.33 460.736C236.989 462.187 237.138 463.275 237.778 464C238.418 464.725 239.464 465.088 240.914 465.088C241.768 465.088 242.493 465.024 243.09 464.896C243.73 464.768 244.328 464.619 244.882 464.448L243.218 471.744C242.578 472.043 241.81 472.277 240.914 472.448C240.061 472.619 239.016 472.704 237.778 472.704ZM224.914 446.656L226.578 439.36H250.642L248.978 446.656H224.914ZM248.908 472L259.532 425.92H269.132L258.508 472H248.908ZM282.606 472.64C279.79 472.64 277.208 472.107 274.862 471.04C272.558 469.931 270.723 468.309 269.358 466.176C267.992 464 267.31 461.333 267.31 458.176C267.31 456.171 267.587 454.229 268.142 452.352C268.739 450.432 269.592 448.661 270.702 447.04C271.811 445.376 273.155 443.925 274.734 442.688C276.355 441.451 278.168 440.491 280.174 439.808C282.179 439.083 284.376 438.72 286.766 438.72C289.539 438.72 292.078 439.232 294.382 440.256C296.686 441.28 298.52 442.816 299.886 444.864C301.251 446.869 301.934 449.408 301.934 452.48C301.934 453.803 301.784 454.997 301.486 456.064C301.23 457.131 300.867 457.963 300.398 458.56H272.686L274.03 452.224H294.19L292.334 454.144C292.59 453.163 292.696 452.181 292.654 451.2C292.611 450.176 292.355 449.259 291.886 448.448C291.459 447.595 290.798 446.912 289.902 446.4C289.006 445.888 287.832 445.632 286.382 445.632C284.888 445.632 283.587 445.909 282.478 446.464C281.411 446.976 280.494 447.68 279.726 448.576C279 449.472 278.403 450.475 277.934 451.584C277.464 452.693 277.123 453.824 276.91 454.976C276.739 456.128 276.654 457.216 276.654 458.24C276.654 460.971 277.272 462.912 278.51 464.064C279.747 465.173 281.411 465.728 283.502 465.728C285.251 465.728 286.68 465.429 287.79 464.832C288.899 464.192 289.752 463.403 290.35 462.464H299.246C297.795 465.664 295.576 468.16 292.59 469.952C289.646 471.744 286.318 472.64 282.606 472.64Z" fill="white"/>
<g filter="url(#filter0_d_257_1659)">
<path d="M129.318 413.439L135.263 407L129.814 438.702L115.944 443.656L129.318 413.439Z" fill="#D5EFB4"/>
<path d="M134.767 473.872L128.823 480.311L134.272 448.609L148.142 443.655L134.767 473.872Z" fill="#D5EFB4"/>
<path d="M154.581 429.291L115.944 443.656L110 458.516L148.142 443.656L154.581 429.291Z" fill="#D5EFB4"/>
</g>
<defs>
<filter id="filter0_d_257_1659" x="106" y="407" width="52.5811" height="81.311" filterUnits="userSpaceOnUse" color-interpolation-filters="sRGB">
<feFlood flood-opacity="0" result="BackgroundImageFix"/>
<feColorMatrix in="SourceAlpha" type="matrix" values="0 0 0 0 0 0 0 0 0 0 0 0 0 0 0 0 0 0 127 0" result="hardAlpha"/>
<feOffset dy="4"/>
<feGaussianBlur stdDeviation="2"/>
<feComposite in2="hardAlpha" operator="out"/>
<feColorMatrix type="matrix" values="0 0 0 0 0 0 0 0 0 0 0 0 0 0 0 0 0 0 0.25 0"/>
<feBlend mode="normal" in2="BackgroundImageFix" result="effect1_dropShadow_257_1659"/>
<feBlend mode="normal" in="SourceGraphic" in2="effect1_dropShadow_257_1659" result="shape"/>
</filter>
</defs>
</svg>
