<svg width="32" height="32" viewBox="0 0 32 32" fill="none" xmlns="http://www.w3.org/2000/svg">
<mask id="mask0_551_955" style="mask-type:alpha" maskUnits="userSpaceOnUse" x="0" y="0" width="32" height="32">
<rect width="32" height="32" fill="#D9D9D9"/>
</mask>
<g mask="url(#mask0_551_955)">
<path d="M12.677 25.4907L6.49563 19.3094C6.33785 20.2131 6.27507 21.2597 6.30729 22.449C6.33951 23.6386 6.43996 24.5852 6.60863 25.289C7.23129 25.4764 8.1774 25.597 9.44696 25.651C10.7165 25.7048 11.7932 25.6514 12.677 25.4907ZM14.7213 25.171C16.074 24.9255 17.3606 24.4988 18.5813 23.891C19.8017 23.2835 20.8404 22.5511 21.6973 21.694C22.524 20.8667 23.2382 19.8596 23.84 18.6727C24.4417 17.4858 24.8854 16.1789 25.171 14.752L17.248 6.82902C15.9151 7.09746 14.6425 7.53746 13.4303 8.14902C12.2181 8.7608 11.2005 9.47669 10.3776 10.2967C9.55496 11.1165 8.84374 12.1337 8.24396 13.3484C7.64418 14.5628 7.17251 15.8729 6.82896 17.2787L14.7213 25.171ZM12.7486 20.4307L11.5693 19.2514L19.2513 11.5694L20.4306 12.7487L12.7486 20.4307ZM25.5043 12.7214C25.6667 11.776 25.7333 10.7085 25.704 9.51869C25.6744 8.32913 25.5702 7.39324 25.3913 6.71102C24.7628 6.5248 23.8138 6.40335 22.5443 6.34669C21.2747 6.29002 20.201 6.34424 19.323 6.50935L25.5043 12.7214ZM10.223 27.3334C9.0834 27.3334 8.04152 27.2582 7.09729 27.108C6.15285 26.9578 5.57763 26.7844 5.37163 26.5877C5.17629 26.3741 5.00996 25.8105 4.87263 24.8967C4.73529 23.9827 4.66663 22.9792 4.66663 21.8864C4.66663 19.2528 5.05174 16.8129 5.82196 14.5667C6.59196 12.3205 7.6804 10.494 9.08729 9.08735C10.494 7.68046 12.325 6.59202 14.5803 5.82202C16.8354 5.0518 19.2855 4.66669 21.9306 4.66669C23.0517 4.66669 24.0517 4.73802 24.9306 4.88069C25.8093 5.02358 26.3537 5.19369 26.564 5.39102C26.7913 5.61013 26.9764 6.17024 27.1193 7.07135C27.262 7.97247 27.3333 8.97969 27.3333 10.093C27.3333 12.7519 26.9504 15.2079 26.1846 17.461C25.4188 19.7144 24.3367 21.5401 22.9383 22.9384C21.539 24.3379 19.7163 25.4202 17.4703 26.1854C15.2245 26.9507 12.8087 27.3334 10.223 27.3334Z" fill="#777777"/>
<path d="M4 9.125C3.51675 9.125 3.125 9.51675 3.125 10C3.125 10.4832 3.51675 10.875 4 10.875L4 9.125ZM4 10.875L9 10.875L9 9.125L4 9.125L4 10.875Z" fill="#777777"/>
<path d="M2 13.125C1.51675 13.125 1.125 13.5168 1.125 14C1.125 14.4832 1.51675 14.875 2 14.875L2 13.125ZM2 14.875L7 14.875L7 13.125L2 13.125L2 14.875Z" fill="#777777"/>
<path d="M7 5.125C6.51675 5.125 6.125 5.51675 6.125 6C6.125 6.48325 6.51675 6.875 7 6.875V5.125ZM7 6.875H19V5.125H7V6.875Z" fill="#777777"/>
</g>
</svg>
