<svg width="32" height="32" viewBox="0 0 32 32" fill="none" xmlns="http://www.w3.org/2000/svg">
<mask id="mask0_510_70" style="mask-type:alpha" maskUnits="userSpaceOnUse" x="0" y="0" width="32" height="32">
<rect width="32" height="32" fill="#D9D9D9"/>
</mask>
<g mask="url(#mask0_510_70)">
<path d="M13.5847 27.0863C11.7687 27.3654 10.0771 27.424 8.51002 27.262C6.94269 27.0998 5.89657 26.8714 5.37169 26.577C5.11946 26.083 4.90702 25.0433 4.73435 23.458C4.56169 21.8729 4.62346 20.1969 4.91969 18.43L13.5847 27.0863ZM15.559 26.6947L5.31102 16.447C5.66502 15.0066 6.16935 13.6362 6.82402 12.336C7.47869 11.0356 8.23713 9.95489 9.09935 9.094C9.9698 8.21778 11.0806 7.44156 12.4317 6.76534C13.7826 6.08934 15.117 5.61111 16.435 5.33067L26.6837 15.5967C26.3892 16.9978 25.91 18.3519 25.246 19.659C24.5822 20.9661 23.8108 22.0592 22.9317 22.9383C22.0228 23.8483 20.9161 24.6327 19.6117 25.2913C18.307 25.95 16.9561 26.4178 15.559 26.6947ZM12.5737 20.606L20.606 12.5737L19.4264 11.394L11.394 19.4263L12.5737 20.606ZM27.0667 13.6223L18.436 4.92667C20.2491 4.62578 21.9356 4.56178 23.4954 4.73467C25.0551 4.90756 26.078 5.12845 26.564 5.39733C26.866 5.96778 27.1005 7.01711 27.2674 8.54533C27.4345 10.0736 27.3676 11.7659 27.0667 13.6223Z" fill="#A5210D"/>
</g>
</svg>
