<svg width="32" height="32" viewBox="0 0 32 32" fill="none" xmlns="http://www.w3.org/2000/svg">
<mask id="mask0_551_995" style="mask-type:alpha" maskUnits="userSpaceOnUse" x="0" y="0" width="32" height="32">
<rect x="0.5" y="0.5" width="31" height="31" fill="#D9D9D9" stroke="#777777"/>
</mask>
<g mask="url(#mask0_551_995)">
<rect x="3.5" y="3.5" width="24.3333" height="24.3333" rx="12.1667" stroke="#777777"/>
<path d="M14.3959 27.6879C14.9193 27.757 15.4547 27.7917 16.0023 27.7917C17.6401 27.7917 19.1679 27.4815 20.5945 26.8657L14.3959 27.6879ZM14.3959 27.6879L14.5732 26.9579L15.032 25.0699C15.0789 24.913 15.1508 24.796 15.2447 24.7014L15.245 24.7011C15.2965 24.6491 15.3589 24.6122 15.4768 24.6L19.7499 24.2674L19.7582 24.2667L19.7664 24.2659C19.8948 24.2535 19.984 24.2775 20.0665 24.3273C20.1522 24.3793 20.2082 24.4425 20.2491 24.539L20.7142 25.8114L21.0277 26.6693C20.8853 26.737 20.741 26.8024 20.5946 26.8657L14.3959 27.6879ZM12.8268 4.6315L13.2179 5.50394L14.2644 7.83848C14.3083 7.94381 14.3158 8.03939 14.2885 8.15251C14.2613 8.26419 14.2084 8.35277 14.1075 8.43742L14.0996 8.44403L14.0919 8.45083L10.9082 11.2527C10.8071 11.3205 10.6952 11.3606 10.5574 11.3727L10.5567 11.3727C10.4453 11.3826 10.3454 11.3615 10.2318 11.2918L10.2318 11.2918L10.2253 11.2879L7.12199 9.4212L6.47968 9.03485C6.83641 8.54469 7.22869 8.0859 7.65649 7.65794C8.71487 6.59915 9.96184 5.75769 11.4054 5.13437L12.8268 4.6315ZM12.8268 4.6315C12.3422 4.76682 11.8685 4.93448 11.4055 5.13432L12.8268 4.6315ZM8.31452 24.9513L9.04149 24.3027L10.3082 23.1727L10.3155 23.1662L10.3155 23.1663C10.4149 23.0796 10.4488 23.0065 10.4631 22.9355C10.4811 22.8459 10.4755 22.7513 10.4219 22.6283L10.4173 22.6179L10.413 22.6073L8.81797 18.6708C8.7635 18.5495 8.69088 18.4708 8.58993 18.4106C8.49558 18.3543 8.40385 18.3335 8.28223 18.3487L8.2698 18.3502L8.25733 18.3514L5.225 18.6404L4.51237 18.7083C4.66357 19.356 4.871 19.9845 5.13429 20.5945L8.31452 24.9513ZM8.31452 24.9513C8.08809 24.7573 7.86924 24.5548 7.65791 24.3435C6.59912 23.2851 5.75766 22.0382 5.13434 20.5946L8.31452 24.9513ZM26.8659 20.5915C26.8383 20.6555 26.8102 20.7191 26.7817 20.7824L26.223 20.4002L25.8717 20.1598L25.8717 20.1597L25.8611 20.1527C25.7175 20.0575 25.6506 19.9653 25.6147 19.8806C25.575 19.7866 25.5626 19.6917 25.5847 19.5733L26.5422 15.3578L26.5446 15.3476L26.5467 15.3373C26.5641 15.2512 26.5944 15.2085 26.6464 15.1681L26.6465 15.168C26.7326 15.1011 26.8126 15.0729 26.9066 15.0677L27.7539 15.0206C27.779 15.3418 27.7916 15.6675 27.7916 15.9977C27.7916 17.6358 27.4815 19.1641 26.8659 20.5915ZM21.3042 7.91118C21.2188 7.85487 21.1611 7.78553 21.1191 7.68309L21.119 7.68286C21.0777 7.58211 21.0624 7.47329 21.0848 7.33658L21.3706 6.20574L21.528 5.58318C22.5825 6.1428 23.5193 6.83404 24.3421 7.65652C24.9517 8.26597 25.4894 8.93797 25.9548 9.67402L25.2524 10.1302C25.2142 10.155 25.1787 10.1666 25.1233 10.1661C25.094 10.1658 25.0515 10.1598 24.9803 10.1094L24.9528 10.09L24.9239 10.0728L21.3042 7.91118ZM15.8431 19.8964L15.8424 19.896C15.7533 19.842 15.6867 19.7696 15.6354 19.6494L15.6354 19.6494L15.6309 19.639L13.7493 15.3855C13.7148 15.2919 13.7132 15.2115 13.7419 15.116C13.7731 15.0123 13.8245 14.9392 13.9158 14.8732L13.9456 14.8517L13.9735 14.8277L17.4729 11.821L17.5025 11.7956L17.5297 11.7676C17.5773 11.7187 17.6086 11.7062 17.6718 11.7056C17.8095 11.7043 17.9403 11.7356 18.0765 11.81L21.8915 14.0848C21.9945 14.1489 22.0649 14.2287 22.1164 14.3412L22.1165 14.3415C22.1588 14.4337 22.1703 14.5222 22.1449 14.6373C22.1448 14.6381 22.1446 14.6389 22.1444 14.6396L21.1109 19.1102C21.0786 19.2212 21.0231 19.3105 20.933 19.3924C20.8407 19.4759 20.7687 19.5015 20.7052 19.5093L16.1531 19.9579C16.1526 19.958 16.1521 19.958 16.1517 19.9581C16.0138 19.971 15.9224 19.9446 15.8431 19.8964Z" fill="#777777" stroke="#777777" stroke-width="1.75"/>
</g>
</svg>
