<svg width="26" height="26" viewBox="0 0 26 26" fill="none" xmlns="http://www.w3.org/2000/svg">
<path d="M10.3897 23.405L10.853 21.511C10.9379 21.213 11.0837 20.9599 11.2903 20.7517C11.4968 20.5434 11.7556 20.4246 12.0667 20.395L16.3487 20.0617C16.6558 20.0319 16.9353 20.0933 17.1873 20.246C17.4391 20.3989 17.6206 20.6132 17.7317 20.889L18.2153 22.1777C19.1151 21.6337 19.9222 20.9946 20.6367 20.2603C21.3513 19.5261 21.942 18.698 22.4087 17.776L22.0443 17.5487C21.7761 17.3709 21.5864 17.1506 21.4753 16.8877C21.3642 16.6246 21.3374 16.3486 21.395 16.0597L22.3557 11.8307C22.4132 11.5458 22.5534 11.3168 22.7763 11.1437C22.9994 10.9703 23.2489 10.866 23.5247 10.8307C23.4136 10.266 23.2688 9.70833 23.0903 9.15767C22.9117 8.607 22.6844 8.06611 22.4087 7.535C22.2178 7.65522 22.0093 7.71344 21.7833 7.70967C21.5573 7.70611 21.3436 7.63311 21.142 7.49067L17.5093 5.32133C17.2649 5.16578 17.0871 4.95244 16.976 4.68133C16.8649 4.41 16.8381 4.12244 16.8957 3.81867L17.176 2.658C16.4689 2.32867 15.7377 2.08256 14.9823 1.91967C14.2272 1.75678 13.4553 1.67533 12.6667 1.67533C12.3316 1.67533 11.9988 1.68744 11.6683 1.71167C11.3379 1.73589 11.0051 1.77389 10.67 1.82567L11.7333 4.15567C11.8536 4.437 11.8777 4.72667 11.8057 5.02467C11.7334 5.32267 11.5771 5.57256 11.3367 5.77433L8.118 8.607C7.87756 8.783 7.605 8.88433 7.30033 8.911C6.99589 8.93789 6.70944 8.869 6.441 8.70433L3.32467 6.83767C2.78067 7.71522 2.36978 8.64778 2.092 9.63533C1.81422 10.6231 1.67533 11.6336 1.67533 12.6667C1.67533 13.0462 1.71978 13.636 1.80867 14.436L4.841 14.147C5.15211 14.1083 5.44 14.1679 5.70467 14.3257C5.96933 14.4834 6.16467 14.7071 6.29067 14.9967L7.89067 18.9453C8.01089 19.2211 8.04322 19.4974 7.98767 19.7743C7.93211 20.0512 7.78867 20.2906 7.55733 20.4923L6.29067 21.6223C6.89978 22.0668 7.54778 22.4371 8.23467 22.7333C8.92156 23.0296 9.63989 23.2534 10.3897 23.405ZM12.9027 17.4957C12.5898 17.5254 12.3074 17.4639 12.0557 17.311C11.8037 17.1583 11.6176 16.9412 11.4973 16.6597L9.607 12.3863C9.49589 12.1048 9.48378 11.8196 9.57067 11.5307C9.65756 11.2418 9.824 11.0084 10.07 10.8307L13.5693 7.824C13.7784 7.60911 14.032 7.50022 14.33 7.49733C14.628 7.49444 14.9111 7.568 15.1793 7.718L19.012 10.0033C19.2656 10.1589 19.4544 10.3723 19.5787 10.6437C19.7029 10.9148 19.7317 11.1993 19.665 11.4973L18.6257 15.993C18.5499 16.2728 18.4038 16.5109 18.1873 16.7073C17.9707 16.9036 17.7299 17.0164 17.465 17.046L12.9027 17.4957ZM12.669 25.3333C10.917 25.3333 9.27022 25.0009 7.72867 24.336C6.18711 23.6711 4.84622 22.7688 3.706 21.629C2.56578 20.4892 1.663 19.1489 0.997666 17.608C0.332555 16.0671 0 14.4208 0 12.669C0 10.917 0.332444 9.27022 0.997333 7.72867C1.66222 6.18711 2.56456 4.84622 3.70433 3.706C4.84411 2.56578 6.18445 1.663 7.72533 0.997666C9.26622 0.332555 10.9126 0 12.6643 0C14.4163 0 16.0631 0.332444 17.6047 0.997333C19.1462 1.66222 20.4871 2.56456 21.6273 3.70433C22.7676 4.84411 23.6703 6.18445 24.3357 7.72533C25.0008 9.26622 25.3333 10.9126 25.3333 12.6643C25.3333 14.4163 25.0009 16.0631 24.336 17.6047C23.6711 19.1462 22.7688 20.4871 21.629 21.6273C20.4892 22.7676 19.1489 23.6703 17.608 24.3357C16.0671 25.0008 14.4208 25.3333 12.669 25.3333Z" fill="#777777"/>
</svg>
