<svg width="96" height="96" viewBox="0 0 96 96" fill="none" xmlns="http://www.w3.org/2000/svg">
<g clip-path="url(#clip0_581_1793)">
<path fill-rule="evenodd" clip-rule="evenodd" d="M15.8593 71.1885C12.7808 70.2803 9.70885 68.16 7.90105 64.3178C6.09325 60.4757 6.41789 56.7572 7.6807 53.8064C8.91056 50.9326 11.0859 48.6582 13.2247 47.6518L30.3478 39.5951C37.1333 36.4024 42.3075 29.2277 44.957 21.2176C45.7116 18.9364 47.9037 17.7699 49.7851 17.5166C51.6598 17.2643 54.1827 17.8228 55.2913 20.1791L71.7441 55.1465C72.8919 57.5859 71.5418 59.9689 70.1351 61.2685C68.7088 62.5862 66.3353 63.6641 64.0302 62.8261C56.4098 60.0557 47.7992 59.7062 41.2584 62.7837L24.1353 70.8405C21.9965 71.8468 18.8575 72.0729 15.8593 71.1885ZM16.991 67.3519C19.1967 68.0026 21.3096 67.7494 22.4323 67.2211L39.5554 59.1644C47.3429 55.5002 57.1134 56.0554 65.3969 59.0668C65.7603 59.1989 66.6016 59.0872 67.4208 58.3304C68.2596 57.5555 68.1858 56.9792 68.1247 56.8494L51.6719 21.882C51.5932 21.7146 51.2411 21.3567 50.3187 21.4809C49.4031 21.6041 48.876 22.107 48.7547 22.4738C45.8914 31.1303 40.1516 39.4029 32.0507 43.2145L14.9276 51.2712C13.8049 51.7995 12.2629 53.266 11.3581 55.3801C10.4863 57.4173 10.259 59.9339 11.5204 62.6148C12.7819 65.2958 14.8657 66.725 16.991 67.3519Z" fill="#C2C2C2"/>
<path fill-rule="evenodd" clip-rule="evenodd" d="M64.6286 42.8711C67.0578 41.7281 68.1005 38.8322 66.9575 36.403C65.8145 33.9738 62.9187 32.9311 60.4894 34.0741L59.3541 31.6611C63.116 29.8911 67.6004 31.5058 69.3705 35.2677C71.1405 39.0295 69.5258 43.514 65.7639 45.284L64.6286 42.8711Z" fill="#C2C2C2"/>
<path fill-rule="evenodd" clip-rule="evenodd" d="M38.1036 81.9572L30.8827 65.6151L34.5415 63.9985L41.7624 80.3405C42.9407 83.0072 41.8691 86.1316 39.3022 87.5138C36.7226 88.9028 33.5082 88.062 31.9391 85.5878L22.0117 69.933L25.3898 67.7908L35.3172 83.4456C35.7622 84.1474 36.674 84.386 37.4058 83.992C38.1339 83.5999 38.4379 82.7136 38.1036 81.9572Z" fill="#C2C2C2"/>
<path fill-rule="evenodd" clip-rule="evenodd" d="M24.6017 44.5313L34.0391 64.5868L31.6262 65.7222L22.1888 45.6667L24.6017 44.5313Z" fill="#C2C2C2"/>
<path fill-rule="evenodd" clip-rule="evenodd" d="M72.8232 34.255C72.3529 33.2555 72.7819 32.0641 73.7813 31.5938L81.935 27.7569C82.9345 27.2866 84.126 27.7156 84.5963 28.715C85.0666 29.7145 84.6376 30.9059 83.6382 31.3762L75.4845 35.2131C74.485 35.6834 73.2935 35.2544 72.8232 34.255Z" fill="#C2C2C2"/>
<path fill-rule="evenodd" clip-rule="evenodd" d="M67.8876 24.6352C66.8484 24.2611 66.3092 23.1153 66.6833 22.076L69.7358 13.5974C70.11 12.5581 71.2558 12.0189 72.2951 12.3931C73.3343 12.7673 73.8735 13.9131 73.4993 14.9523L70.4469 23.4309C70.0727 24.4702 68.9269 25.0094 67.8876 24.6352Z" fill="#C2C2C2"/>
<path fill-rule="evenodd" clip-rule="evenodd" d="M89.7295 48.9148C89.3553 49.954 88.2095 50.4932 87.1702 50.1191L78.6916 47.0666C77.6524 46.6924 77.1132 45.5466 77.4874 44.5073C77.8615 43.4681 79.0073 42.9289 80.0466 43.3031L88.5252 46.3555C89.5645 46.7297 90.1036 47.8755 89.7295 48.9148Z" fill="#C2C2C2"/>
</g>
<defs>
<clipPath id="clip0_581_1793">
<rect width="96" height="96" fill="white"/>
</clipPath>
</defs>
</svg>
