<svg width="32" height="32" viewBox="0 0 32 32" fill="none" xmlns="http://www.w3.org/2000/svg">
<mask id="mask0_399_341" style="mask-type:alpha" maskUnits="userSpaceOnUse" x="0" y="0" width="32" height="32">
<rect width="32" height="32" fill="#D9D9D9"/>
</mask>
<g mask="url(#mask0_399_341)">
<path d="M4.66666 25.2477V6.75238C4.66666 6.18327 4.872 5.69338 5.28266 5.28272C5.69333 4.87205 6.18322 4.66672 6.75233 4.66672H25.2477C25.8168 4.66672 26.3067 4.87205 26.7173 5.28272C27.128 5.69338 27.3333 6.18327 27.3333 6.75238V25.2477C27.3333 25.8168 27.128 26.3067 26.7173 26.7174C26.3067 27.1281 25.8168 27.3334 25.2477 27.3334H6.75233C6.18322 27.3334 5.69333 27.1281 5.28266 26.7174C4.872 26.3067 4.66666 25.8168 4.66666 25.2477ZM16.8377 16.8377V25.6581H25.658V16.8377H16.8377ZM16.8377 15.1624H25.658V6.34205H16.8377V15.1624ZM15.1623 15.1624V6.34205H6.342V15.1624H15.1623ZM15.1623 16.8377H6.342V25.6581H15.1623V16.8377Z" fill="#8B8B8B"/>
</g>
</svg>
