<svg width="32" height="32" viewBox="0 0 32 32" fill="none" xmlns="http://www.w3.org/2000/svg">
<mask id="mask0_571_890" style="mask-type:alpha" maskUnits="userSpaceOnUse" x="0" y="0" width="32" height="32">
<rect width="32" height="32" fill="#D9D9D9"/>
</mask>
<g mask="url(#mask0_571_890)">
<path d="M18.923 27.3333C18.3539 27.3333 17.864 27.128 17.4534 26.7173C17.0429 26.3067 16.8377 25.8168 16.8377 25.2477V18.923C16.8377 18.3539 17.0429 17.864 17.4534 17.4533C17.864 17.0429 18.3539 16.8377 18.923 16.8377H25.2477C25.8168 16.8377 26.3067 17.0429 26.7174 17.4533C27.128 17.864 27.3334 18.3539 27.3334 18.923V25.2477C27.3334 25.8168 27.128 26.3067 26.7174 26.7173C26.3067 27.128 25.8168 27.3333 25.2477 27.3333H18.923ZM18.923 15.1623C18.3539 15.1623 17.864 14.9571 17.4534 14.5467C17.0429 14.136 16.8377 13.6461 16.8377 13.077V6.75233C16.8377 6.18322 17.0429 5.69333 17.4534 5.28267C17.864 4.872 18.3539 4.66667 18.923 4.66667H25.2477C25.8168 4.66667 26.3067 4.872 26.7174 5.28267C27.128 5.69333 27.3334 6.18322 27.3334 6.75233V13.077C27.3334 13.6461 27.128 14.136 26.7174 14.5467C26.3067 14.9571 25.8168 15.1623 25.2477 15.1623H18.923ZM6.75235 15.1623C6.18324 15.1623 5.69335 14.9571 5.28269 14.5467C4.87202 14.136 4.66669 13.6461 4.66669 13.077V6.75233C4.66669 6.18322 4.87202 5.69333 5.28269 5.28267C5.69335 4.872 6.18324 4.66667 6.75235 4.66667H13.077C13.6461 4.66667 14.136 4.872 14.5467 5.28267C14.9571 5.69333 15.1624 6.18322 15.1624 6.75233V13.077C15.1624 13.6461 14.9571 14.136 14.5467 14.5467C14.136 14.9571 13.6461 15.1623 13.077 15.1623H6.75235ZM6.75235 27.3333C6.18324 27.3333 5.69335 27.128 5.28269 26.7173C4.87202 26.3067 4.66669 25.8168 4.66669 25.2477V18.923C4.66669 18.3539 4.87202 17.864 5.28269 17.4533C5.69335 17.0429 6.18324 16.8377 6.75235 16.8377H13.077C13.6461 16.8377 14.136 17.0429 14.5467 17.4533C14.9571 17.864 15.1624 18.3539 15.1624 18.923V25.2477C15.1624 25.8168 14.9571 26.3067 14.5467 26.7173C14.136 27.128 13.6461 27.3333 13.077 27.3333H6.75235Z" fill="#A5210D"/>
</g>
</svg>
