<svg width="10" height="20" viewBox="0 0 10 20" fill="none" xmlns="http://www.w3.org/2000/svg">
<path d="M1.82951 10L9.62251 17.7865C9.78535 17.9537 9.86676 18.1579 9.86676 18.3992C9.86693 18.6406 9.78468 18.848 9.62001 19.0215C9.44434 19.1952 9.23584 19.282 8.99451 19.282C8.75334 19.282 8.54601 19.1951 8.37251 19.0212L0.447512 11.0947C0.289345 10.9389 0.175095 10.7657 0.104762 10.575C0.034595 10.3843 -0.000488281 10.1932 -0.000488281 10.0015C-0.000488281 9.80983 0.0340951 9.61816 0.103262 9.4265C0.172428 9.23483 0.287178 9.05891 0.447512 8.89875L8.38276 0.963496C8.55843 0.789496 8.76551 0.705079 9.00401 0.710245C9.24234 0.715412 9.44851 0.804913 9.62251 0.978747C9.78535 1.15275 9.86843 1.35858 9.87176 1.59625C9.87526 1.83375 9.79218 2.0395 9.62251 2.2135L1.82951 10Z" fill="#777777"/>
</svg>
