<svg width="32" height="32" viewBox="0 0 32 32" fill="none" xmlns="http://www.w3.org/2000/svg">
<path d="M14 30.6667C15.1045 30.6667 16 29.7712 16 28.6667L16 24L12 24V27.3333V28.6667C12 29.7712 12.8954 30.6667 14 30.6667Z" fill="#777777"/>
<path d="M16 24C18.2222 22.6667 23.3334 18.6667 24 13.3333C24.4444 10 24.1792 3.25378 20 2C19.8026 1.9408 19.5794 1.87949 19.3333 1.81804C16.8087 1.18755 11.8878 0.542094 7.99999 2C5.68072 2.8697 3.46666 5.33336 3.99999 13.3333C5.33331 18 5.99998 20 12 24M16 24L16 28.6667C16 29.7712 15.1045 30.6667 14 30.6667V30.6667C12.8954 30.6667 12 29.7712 12 28.6667V27.3333V24M16 24L12 24" stroke="#777777" stroke-width="1.75"/>
<path d="M8.66669 2.08954V21.1139M14 1.75287V23.3333M19.3334 2V21.7348M4.66669 8.66667H23.3334M4.66669 14H23.3334M6.67425 19.3333H21.3334" stroke="#777777" stroke-width="1.25"/>
<circle cx="26.3333" cy="25.3333" r="2.70833" stroke="#777777" stroke-width="1.25"/>
</svg>
