<svg width="32" height="32" viewBox="0 0 32 32" fill="none" xmlns="http://www.w3.org/2000/svg">
<mask id="mask0_571_1127" style="mask-type:alpha" maskUnits="userSpaceOnUse" x="0" y="0" width="32" height="32">
<rect width="32" height="32" fill="#D9D9D9"/>
</mask>
<g mask="url(#mask0_571_1127)">
<path d="M5.03604 15.1623H9.62071C9.49804 14.1072 9.20537 13.0991 8.74271 12.138C8.28004 11.1771 7.69293 10.3436 6.98137 9.63765C6.43604 10.425 5.9886 11.2812 5.63904 12.2063C5.28949 13.1314 5.08849 14.1168 5.03604 15.1623ZM22.3794 15.1623H26.964C26.9116 14.1254 26.7106 13.1465 26.361 12.2256C26.0115 11.3048 25.564 10.4506 25.0187 9.66331C24.2485 10.4164 23.6467 11.2574 23.2134 12.1863C22.78 13.1152 22.502 14.1072 22.3794 15.1623ZM6.98137 22.323C7.72604 21.5699 8.32149 20.7312 8.76771 19.807C9.21371 18.8825 9.49804 17.8928 9.62071 16.8376H5.03604C5.09693 17.8832 5.30004 18.862 5.64537 19.774C5.99071 20.686 6.43604 21.5356 6.98137 22.323ZM25.0187 22.323C25.564 21.5356 26.0115 20.6839 26.361 19.7676C26.7106 18.8512 26.9116 17.8745 26.964 16.8376H22.3794C22.502 17.8928 22.78 18.8825 23.2134 19.807C23.6467 20.7312 24.2485 21.5699 25.0187 22.323ZM11.3147 15.1623H15.1624V5.03598C13.7744 5.1562 12.4793 5.5032 11.277 6.07698C10.0746 6.65076 9.00737 7.41542 8.07537 8.37098C8.98293 9.26831 9.71593 10.2973 10.2744 11.458C10.8328 12.6189 11.1796 13.8536 11.3147 15.1623ZM16.8377 15.1623H20.6854C20.8205 13.8536 21.1674 12.6161 21.726 11.4496C22.2847 10.2832 23.0222 9.25698 23.9384 8.37098C23.0119 7.41542 21.9439 6.65076 20.7344 6.07698C19.5246 5.5032 18.2257 5.1562 16.8377 5.03598V15.1623ZM15.1624 26.964V16.8376H11.3147C11.1796 18.1634 10.8349 19.3988 10.2807 20.5436C9.72671 21.6883 8.9916 22.7036 8.07537 23.5896C9.00737 24.5452 10.0575 25.3164 11.2257 25.9033C12.3937 26.4902 13.7059 26.8438 15.1624 26.964ZM16.8377 26.964C18.2826 26.8438 19.5957 26.4945 20.777 25.9163C21.9582 25.3379 23.0119 24.5709 23.9384 23.6153C23.0222 22.7293 22.2847 21.7096 21.726 20.5563C21.1674 19.403 20.8205 18.1634 20.6854 16.8376H16.8377V26.964ZM16 28.6666C14.2496 28.6666 12.6039 28.3338 11.063 27.668C9.52193 27.0022 8.18126 26.0992 7.04104 24.959C5.90082 23.8188 4.99782 22.4781 4.33204 20.937C3.66626 19.3961 3.33337 17.7504 3.33337 16C3.33337 14.2495 3.66626 12.6039 4.33204 11.063C4.99782 9.52187 5.90082 8.1812 7.04104 7.04098C8.18126 5.90076 9.52193 4.99776 11.063 4.33198C12.6039 3.6662 14.2496 3.33331 16 3.33331C17.7505 3.33331 19.3962 3.6662 20.937 4.33198C22.4782 4.99776 23.8188 5.90076 24.959 7.04098C26.0993 8.1812 27.0023 9.52187 27.668 11.063C28.3338 12.6039 28.6667 14.2495 28.6667 16C28.6667 17.7504 28.3338 19.3961 27.668 20.937C27.0023 22.4781 26.0993 23.8188 24.959 24.959C23.8188 26.0992 22.4782 27.0022 20.937 27.668C19.3962 28.3338 17.7505 28.6666 16 28.6666Z" fill="#777777"/>
</g>
</svg>
