<svg width="32" height="32" viewBox="0 0 32 32" fill="none" xmlns="http://www.w3.org/2000/svg">
<mask id="mask0_654_1104" style="mask-type:alpha" maskUnits="userSpaceOnUse" x="0" y="0" width="32" height="32">
<rect width="32" height="32" fill="#D9D9D9"/>
</mask>
<g mask="url(#mask0_654_1104)">
<path d="M16 32.5449C15.1556 32.5449 14.465 32.7875 13.9283 33.2726C13.3914 33.7575 12.6062 34 11.5727 34C10.5391 34 9.72833 33.7575 9.14033 33.2726C8.55211 32.7875 7.84033 32.5449 7.005 32.5449C6.32922 32.5449 5.76944 32.6958 5.32567 32.9977C4.88167 33.2996 4.39222 33.5529 3.85733 33.7577C3.64711 33.8436 3.45167 33.8106 3.271 33.6585C3.09033 33.5066 3 30.4785 3 30.2374C3 29.9717 3.08478 29.7428 3.25433 29.5508C3.42389 29.3587 3.62456 29.21 3.85633 29.1047C4.30767 28.9169 4.74456 28.6859 5.167 28.4117C5.58967 28.1372 6.20233 28 7.005 28C8.03878 28 8.83022 28.2314 9.37933 28.6941C9.92867 29.1568 10.6387 29.3881 11.5093 29.3881C12.3847 29.3881 13.0936 29.1568 13.636 28.6941C14.1784 28.2314 14.9664 28 16 28C17.0336 28 17.8239 28.2314 18.371 28.6941C18.9179 29.1568 19.629 29.3881 20.5043 29.3881C21.3794 29.3881 22.092 29.1568 22.642 28.6941C23.1918 28.2314 23.9807 28 25.0087 28C25.8171 28 26.4312 28.1372 26.851 28.4117C27.2706 28.6859 27.706 28.9169 28.1573 29.1047C28.3891 29.21 28.5876 29.3587 28.7527 29.5508C28.9176 29.7428 29 29.9717 29 30.2374C29 30.4785 28.912 33.5066 28.736 33.6585C28.5598 33.8106 28.3694 33.8436 28.165 33.7577C27.6243 33.5529 27.132 33.2996 26.688 32.9977C26.2442 32.6958 25.6844 32.5449 25.0087 32.5449C24.1733 32.5449 23.487 32.7875 22.9497 33.2726C22.4123 33.7575 21.6268 34 20.593 34C19.5686 34 18.7558 33.7575 18.1547 33.2726C17.5536 32.7875 16.8353 32.5449 16 32.5449Z" fill="#A5210D"/>
<path d="M23.1924 31.1099L23.1918 31.1093L20.7037 28.6126C20.7037 28.6125 20.7037 28.6125 20.7037 28.6125C20.5562 28.465 20.4349 28.2965 20.3561 28.1047L20.3557 28.1036C20.281 27.9205 20.2453 27.7278 20.2453 27.53V26.1268L10.3165 16.1979C10.2323 16.2154 10.1504 16.2302 10.071 16.2423L23.1924 31.1099ZM23.1924 31.1099C23.4886 31.4061 23.8574 31.5683 24.277 31.5683C24.6964 31.5683 25.065 31.406 25.3612 31.1099L27.1726 29.2984C27.4741 29.0039 27.642 28.6348 27.642 28.212C27.642 27.7893 27.4743 27.4202 27.1729 27.1258L24.6865 24.6307L24.6862 24.6305C24.5387 24.4827 24.3699 24.3613 24.1774 24.2826C23.9919 24.2065 23.7957 24.1717 23.595 24.1717H22.1917L13.4066 15.3868M23.1924 31.1099L13.4066 15.3868M16.813 13.3968V18.36V18.5673L16.9597 18.7138L20.3877 22.1368L20.6697 22.4184L21.0071 22.2063C21.5334 21.8754 21.9444 21.3684 22.2572 20.7263L22.2572 20.7262C22.5734 20.0766 22.7323 19.3882 22.7323 18.6667V10.6087C22.7323 9.8212 22.4501 9.13465 21.896 8.57722C21.3411 8.01886 20.655 7.73434 19.8666 7.73434C19.4311 7.73434 19.0155 7.82989 18.6257 8.02048C18.2459 8.20618 17.9153 8.46191 17.6363 8.78409L15.8001 10.7548L15.8001 10.7548L15.7978 10.7573C15.1984 11.4095 14.2566 12.0576 12.9372 12.6886C11.6309 13.3134 10.4866 13.6439 9.49733 13.7071C9.45011 13.7077 9.40352 13.7105 9.35766 13.7157L9.01463 13.7368V13.8034C8.862 13.8666 8.72207 13.961 8.59898 14.0862L8.59873 14.0865C8.3531 14.3368 8.22996 14.6519 8.22996 15C8.22996 15.348 8.35276 15.6623 8.59376 15.915C8.71755 16.0449 8.85923 16.143 9.01463 16.2085V16.3573L9.54128 16.3064C9.62146 16.3049 9.69961 16.2966 9.77544 16.2818C9.8786 16.2697 9.97711 16.2566 10.0709 16.2423L16.813 13.3968ZM16.813 13.3968C16.3003 13.8007 15.7642 14.164 15.2047 14.4865L16.813 13.3968ZM13.4066 15.3868C13.9961 15.1381 14.5955 14.8377 15.2046 14.4865L13.4066 15.3868ZM12.2838 18.3502L12.637 18.7043L15.778 21.8536L16.6288 22.7067H15.424H11.9156L8.05618 26.5449C8.05605 26.545 8.05592 26.5452 8.05579 26.5453C7.78578 26.8151 7.44671 26.959 7.06396 26.959C6.68122 26.959 6.34224 26.8149 6.07229 26.5451L12.2838 18.3502ZM12.2838 18.3502L11.9298 18.7034M12.2838 18.3502L11.9298 18.7034M11.9298 18.7034L6.07641 24.5431C5.79346 24.8143 5.64407 25.1612 5.65138 25.5553L6.15129 25.546L11.9298 18.7034ZM18.1384 2.47512C17.6113 3.00203 17.3426 3.6532 17.3426 4.4C17.3426 5.14676 17.6112 5.7979 18.1383 6.3248C18.1383 6.32483 18.1384 6.32486 18.1384 6.32489C18.1384 6.32492 18.1385 6.32495 18.1385 6.32498C18.6654 6.85206 19.3165 7.12067 20.0633 7.12067C20.81 7.12067 21.4611 6.85197 21.9882 6.32489C22.5151 5.79794 22.7836 5.14677 22.7836 4.4C22.7836 3.65324 22.5151 3.00207 21.9882 2.47511L21.9881 2.47502L18.1384 2.47512ZM18.1384 2.47512L18.4919 2.82861L18.1385 2.47502C18.1385 2.47505 18.1384 2.47508 18.1384 2.47512Z" fill="#A5210D" stroke="white"/>
</g>
</svg>
