<svg width="32" height="32" viewBox="0 0 32 32" fill="none" xmlns="http://www.w3.org/2000/svg">
<path d="M19.512 22.0227L29.3333 4M23.396 4L16.4987 17.0493C15.652 18.6493 15.128 18.8653 13.3787 18.332C11.148 17.652 6.68534 15.292 4.464 16.3227C2.24134 17.3547 2.05334 24.2373 4.05067 25.648C6.288 27.228 12.916 26.6587 15.728 26.0133M10.6667 17.3333L8 26.6667" stroke="#777777" stroke-width="1.75" stroke-linecap="round" stroke-linejoin="round"/>
<path d="M16 25.3333C16 23.1267 16.46 22.6667 18.6667 22.6667H24C26.2067 22.6667 26.6667 23.1267 26.6667 25.3333C26.6667 27.54 26.2067 28 24 28H18.6667C16.46 28 16 27.54 16 25.3333Z" stroke="#777777" stroke-width="1.75" stroke-linecap="round" stroke-linejoin="round"/>
</svg>
