<svg width="32" height="32" viewBox="0 0 32 32" fill="none" xmlns="http://www.w3.org/2000/svg">
<mask id="mask0_542_517" style="mask-type:alpha" maskUnits="userSpaceOnUse" x="0" y="0" width="32" height="32">
<rect width="32" height="32" fill="#D9D9D9"/>
</mask>
<g mask="url(#mask0_542_517)">
<path d="M4.43065 26.2187L3.23065 25.0257L9.13132 19.125C9.82554 18.4308 10.3025 17.5846 10.5623 16.5863C10.8223 15.5879 10.9523 14.1269 10.9523 12.2033C10.9523 10.978 11.2223 9.77401 11.7623 8.59134C12.3025 7.40845 13.0969 6.29279 14.1453 5.24434C15.9978 3.39212 18.0262 2.33267 20.2307 2.06601C22.4351 1.79934 24.2505 2.38023 25.677 3.80868C27.1065 5.24201 27.6865 7.0649 27.417 9.27734C27.1474 11.4896 26.0888 13.5196 24.241 15.3673C23.1983 16.4102 22.0871 17.1943 20.9073 17.7197C19.7275 18.245 18.5191 18.5077 17.282 18.5077C15.3818 18.5077 13.9237 18.634 12.9077 18.8867C11.8917 19.1393 11.033 19.6165 10.3317 20.318L4.43065 26.2187ZM13.8497 15.583C14.9179 16.6381 16.3627 17.0277 18.184 16.7517C20.0051 16.4757 21.639 15.614 23.0857 14.1667C24.5397 12.712 25.4079 11.0848 25.6903 9.28501C25.9725 7.48523 25.5794 6.06434 24.511 5.02234C23.4523 3.95501 22.0224 3.55912 20.2213 3.83467C18.4202 4.11023 16.7927 4.97556 15.3387 6.43068C13.8907 7.87001 13.0167 9.48868 12.7167 11.2867C12.4167 13.0845 12.7943 14.5166 13.8497 15.583ZM24.3613 30C23.1402 30 22.1012 29.5706 21.2443 28.7117C20.3874 27.853 19.959 26.8131 19.959 25.592C19.959 24.3709 20.3878 23.3319 21.2453 22.475C22.1029 21.6181 23.1414 21.1897 24.361 21.1897C25.5803 21.1897 26.6199 21.6185 27.4797 22.476C28.3394 23.3338 28.7693 24.3723 28.7693 25.5917C28.7693 26.811 28.3399 27.8506 27.481 28.7103C26.6223 29.5701 25.5824 30 24.3613 30Z" fill="#A5210D"/>
</g>
</svg>
