<svg width="32" height="32" viewBox="0 0 32 32" fill="none" xmlns="http://www.w3.org/2000/svg">
<mask id="mask0_5945_2732" style="mask-type:alpha" maskUnits="userSpaceOnUse" x="0" y="0" width="32" height="32">
<rect x="0.5" y="0.5" width="31" height="31" fill="#D9D9D9" stroke="#777777"/>
</mask>
<g mask="url(#mask0_5945_2732)">
<rect x="3.5" y="3.5" width="24.3333" height="24.3333" rx="12.1667" stroke="#A5210D"/>
<path d="M14.0626 27.3545C14.586 27.4237 15.1214 27.4583 15.669 27.4583C17.3068 27.4583 18.8346 27.1481 20.2611 26.5324L14.0626 27.3545ZM14.0626 27.3545L14.2399 26.6246L14.6987 24.7366C14.7455 24.5796 14.8175 24.4626 14.9114 24.3681L14.9117 24.3677C14.9632 24.3158 15.0256 24.2789 15.1435 24.2667L19.4166 23.934L19.4249 23.9334L19.4331 23.9326C19.5619 23.9201 19.6513 23.9443 19.734 23.9944C19.8192 24.0463 19.875 24.1095 19.9158 24.2056L20.3808 25.478L20.6944 26.3359C20.552 26.4036 20.4076 26.4691 20.2612 26.5323L14.0626 27.3545ZM13.9552 7.81882C13.9281 7.93066 13.8752 8.01934 13.7742 8.10407L13.7663 8.11069L13.7586 8.11748L10.5749 10.9194C10.4738 10.9872 10.3618 11.0273 10.224 11.0393L10.2234 11.0394C10.112 11.0492 10.0121 11.0282 9.89852 10.9585L9.89853 10.9584L9.89201 10.9545L6.78868 9.08786L6.14636 8.7015C6.50309 8.21135 6.89538 7.75256 7.32317 7.3246C8.38155 6.2658 9.62853 5.42435 11.0721 4.80102L13.9552 7.81882ZM13.9552 7.81882C13.9825 7.70585 13.9749 7.61035 13.9311 7.50513L12.8846 5.1706L12.4935 4.29816C12.0088 4.43348 11.5352 4.60114 11.0722 4.80098L13.9552 7.81882ZM7.98121 24.6179L8.70818 23.9694L9.97484 22.8394L9.98214 22.8329L9.98217 22.8329C10.0816 22.7462 10.1155 22.6732 10.1298 22.6022C10.1477 22.5126 10.1422 22.418 10.0886 22.295L10.084 22.2845L10.0797 22.2739L8.48466 18.3375C8.43019 18.2161 8.35757 18.1374 8.25662 18.0773C8.16227 18.021 8.07053 18.0002 7.94892 18.0153L7.93649 18.0169L7.92402 18.0181L4.89168 18.3071L4.17906 18.375C4.33026 19.0227 4.53769 19.6511 4.80098 20.2611L7.98121 24.6179ZM7.98121 24.6179C7.75478 24.424 7.53593 24.2214 7.3246 24.0102C6.2658 22.9518 5.42435 21.7048 4.80102 20.2612L7.98121 24.6179ZM26.5325 20.2581C26.5049 20.3221 26.4769 20.3858 26.4484 20.449L25.8897 20.0668L25.5384 19.8265L25.5384 19.8264L25.5277 19.8193C25.384 19.7241 25.3171 19.6318 25.2813 19.547C25.2417 19.4531 25.2293 19.3583 25.2513 19.2399L26.2089 15.0245L26.2113 15.0142L26.2133 15.0039C26.2307 14.9178 26.261 14.8751 26.3131 14.8347L26.3132 14.8346C26.3993 14.7677 26.4793 14.7395 26.5732 14.7343L27.4206 14.6872C27.4457 15.0085 27.4583 15.3342 27.4583 15.6643C27.4583 17.3025 27.1482 18.8308 26.5325 20.2581ZM20.9709 7.57785C20.8855 7.52153 20.8278 7.45219 20.7857 7.34975L20.7856 7.34951C20.7444 7.24877 20.7291 7.13995 20.7515 7.00323L21.0373 5.8724L21.1947 5.24984C22.2492 5.80946 23.1859 6.5007 24.0087 7.32317C24.6184 7.93263 25.1561 8.60462 25.6215 9.34067L24.9191 9.79685C24.8809 9.82165 24.8454 9.83326 24.79 9.83271C24.7607 9.83242 24.7182 9.82645 24.647 9.7761L24.6195 9.75668L24.5906 9.73943L20.9709 7.57785ZM15.5098 19.5631L15.509 19.5626C15.42 19.5087 15.3534 19.4363 15.302 19.3161L15.3021 19.316L15.2975 19.3057L13.416 15.0522C13.3815 14.9585 13.3799 14.8782 13.4086 14.7827C13.4398 14.679 13.4912 14.6058 13.5825 14.5399L13.6123 14.5183L13.6402 14.4943L17.1396 11.4877L17.1692 11.4622L17.1964 11.4342C17.244 11.3854 17.2753 11.3729 17.3385 11.3723C17.4762 11.371 17.607 11.4023 17.7432 11.4767L21.5582 13.7515C21.6612 13.8155 21.7315 13.8953 21.7831 14.0079L21.7832 14.0082C21.8255 14.1004 21.837 14.1888 21.8116 14.3039C21.8115 14.3047 21.8113 14.3055 21.8111 14.3063L20.7776 18.7769C20.7453 18.8878 20.6898 18.9771 20.5997 19.0591C20.5074 19.1425 20.4354 19.1682 20.3719 19.1759L15.8198 19.6246C15.8193 19.6246 15.8188 19.6247 15.8184 19.6247C15.6805 19.6376 15.5891 19.6112 15.5098 19.5631Z" fill="#A5210D" stroke="#A5210D" stroke-width="1.75"/>
</g>
</svg>
