<svg width="150" height="47" viewBox="0 0 150 47" fill="none" xmlns="http://www.w3.org/2000/svg">
<path d="M10.3041 46.72C6.76272 46.72 4.16006 45.5253 2.49606 43.136C0.832058 40.704 0.448058 37.5466 1.34406 33.664L6.01606 13.44H15.6161L11.1361 32.832C10.6667 34.9653 10.7734 36.5653 11.4561 37.632C12.1387 38.656 13.3761 39.168 15.1681 39.168C17.3441 39.168 19.2427 38.4426 20.8641 36.992C22.4854 35.5413 23.5947 33.5146 24.1921 30.912L23.2321 38.784C21.9947 41.1306 20.1601 43.0506 17.7281 44.544C15.3387 45.9946 12.8641 46.72 10.3041 46.72ZM20.8641 46.08L22.6561 38.4H22.4641L28.2241 13.44H37.8241L30.2721 46.08H20.8641ZM52.3836 46.912C49.3116 46.912 46.6236 46.464 44.3196 45.568C42.0156 44.6293 40.2236 43.328 38.9436 41.664C37.6636 40 37.0449 38.08 37.0876 35.904H45.6636C45.6636 36.8426 45.9409 37.6533 46.4956 38.336C47.0502 39.0186 47.8609 39.552 48.9276 39.936C49.9942 40.2773 51.2742 40.448 52.7676 40.448C54.6449 40.448 56.0529 40.1706 56.9916 39.616C57.9729 39.0613 58.4636 38.2506 58.4636 37.184C58.4636 36.4586 58.2076 35.8613 57.6956 35.392C57.2262 34.9226 56.4582 34.496 55.3916 34.112L50.4636 32.448C47.1356 31.3386 44.7676 30.1013 43.3596 28.736C41.9942 27.328 41.3116 25.5786 41.3116 23.488C41.3116 21.312 41.9089 19.4346 43.1036 17.856C44.2982 16.2346 45.9622 14.9973 48.0956 14.144C50.2289 13.248 52.7249 12.8 55.5836 12.8C58.3996 12.8 60.8529 13.2266 62.9436 14.08C65.0769 14.8906 66.7409 16.0426 67.9356 17.536C69.1302 18.9866 69.7062 20.672 69.6636 22.592H61.0876C61.1302 21.8666 60.9169 21.248 60.4476 20.736C59.9782 20.224 59.2956 19.84 58.3996 19.584C57.5036 19.328 56.4156 19.2 55.1356 19.2C53.3862 19.2 52.0849 19.4346 51.2316 19.904C50.3782 20.3733 49.9516 21.0773 49.9516 22.016C49.9516 22.6986 50.2289 23.2533 50.7836 23.68C51.3809 24.1066 52.4262 24.576 53.9196 25.088L59.3596 26.944C61.9196 27.7973 63.8396 28.992 65.1196 30.528C66.4422 32.0213 67.1036 33.856 67.1036 36.032C67.1036 38.208 66.4849 40.128 65.2476 41.792C64.0102 43.4133 62.2822 44.672 60.0636 45.568C57.8876 46.464 55.3276 46.912 52.3836 46.912ZM85.4686 46.784C81.4152 46.784 78.5352 45.6746 76.8286 43.456C75.1219 41.2373 74.7379 38.0586 75.6766 33.92L82.0766 6.14396L92.5086 2.55996L85.0206 34.816C84.6792 36.2666 84.8286 37.3546 85.4686 38.08C86.1086 38.8053 87.1539 39.168 88.6046 39.168C89.4579 39.168 90.1832 39.104 90.7806 38.976C91.4206 38.848 92.0179 38.6986 92.5726 38.528L90.9086 45.824C90.2686 46.1226 89.5006 46.3573 88.6046 46.528C87.7512 46.6986 86.7059 46.784 85.4686 46.784ZM72.6046 20.736L74.2686 13.44H98.3326L96.6686 20.736H72.6046ZM96.5981 46.08L107.222 -4.57764e-05H116.822L106.198 46.08H96.5981ZM130.296 46.72C127.48 46.72 124.899 46.1866 122.552 45.12C120.248 44.0106 118.413 42.3893 117.048 40.256C115.683 38.08 115 35.4133 115 32.256C115 30.2506 115.277 28.3093 115.832 26.432C116.429 24.512 117.283 22.7413 118.392 21.12C119.501 19.456 120.845 18.0053 122.424 16.768C124.045 15.5306 125.859 14.5706 127.864 13.888C129.869 13.1626 132.067 12.8 134.456 12.8C137.229 12.8 139.768 13.312 142.072 14.336C144.376 15.36 146.211 16.896 147.576 18.944C148.941 20.9493 149.624 23.488 149.624 26.56C149.624 27.8826 149.475 29.0773 149.176 30.144C148.92 31.2106 148.557 32.0426 148.088 32.64H120.376L121.72 26.304H141.88L140.024 28.224C140.28 27.2426 140.387 26.2613 140.344 25.28C140.301 24.256 140.045 23.3386 139.576 22.528C139.149 21.6746 138.488 20.992 137.592 20.48C136.696 19.968 135.523 19.712 134.072 19.712C132.579 19.712 131.277 19.9893 130.168 20.544C129.101 21.056 128.184 21.76 127.416 22.656C126.691 23.552 126.093 24.5546 125.624 25.664C125.155 26.7733 124.813 27.904 124.6 29.056C124.429 30.208 124.344 31.296 124.344 32.32C124.344 35.0506 124.963 36.992 126.2 38.144C127.437 39.2533 129.101 39.808 131.192 39.808C132.941 39.808 134.371 39.5093 135.48 38.912C136.589 38.272 137.443 37.4826 138.04 36.544H146.936C145.485 39.744 143.267 42.24 140.28 44.032C137.336 45.824 134.008 46.72 130.296 46.72Z" fill="white"/>
</svg>
