<svg width="32" height="32" viewBox="0 0 32 32" fill="none" xmlns="http://www.w3.org/2000/svg">
<mask id="mask0_654_1101" style="mask-type:alpha" maskUnits="userSpaceOnUse" x="0" y="0" width="32" height="32">
<rect width="32" height="32" fill="#D9D9D9"/>
</mask>
<g mask="url(#mask0_654_1101)">
<path d="M23.546 30.7563L21.0573 28.259C20.9473 28.149 20.8677 28.0342 20.8186 27.9147C20.7697 27.7949 20.7453 27.6667 20.7453 27.53V25.9197L10.4736 15.648C10.301 15.6924 10.1416 15.7258 9.99563 15.748C9.84985 15.7702 9.68952 15.7898 9.51463 15.8067V14.207C10.5908 14.1408 11.8036 13.785 13.153 13.1397C14.5023 12.4943 15.5066 11.813 16.166 11.0957L18.0086 9.118C18.2455 8.84267 18.5244 8.62656 18.8453 8.46967C19.1662 8.31278 19.5066 8.23434 19.8666 8.23434C20.5224 8.23434 21.0806 8.46611 21.5413 8.92967C22.002 9.393 22.2323 9.95267 22.2323 10.6087V18.6667C22.2323 19.3122 22.0907 19.9258 21.8076 20.5073C21.5245 21.0887 21.169 21.5139 20.741 21.783L17.313 18.36V12.3127C16.5807 12.9891 15.7947 13.5693 14.955 14.0533C14.1154 14.5373 13.3007 14.919 12.511 15.1983L21.9846 24.6717H23.595C23.7374 24.6717 23.8684 24.6962 23.988 24.7453C24.1077 24.7942 24.2225 24.8737 24.3323 24.9837L26.8213 27.4813C27.0351 27.6891 27.142 27.9327 27.142 28.212C27.142 28.4911 27.0351 28.7347 26.8213 28.9427L25.0076 30.7563C24.7996 30.9643 24.5561 31.0683 24.277 31.0683C23.9976 31.0683 23.754 30.9643 23.546 30.7563ZM11.7093 22.2067L7.70263 26.1913C7.52418 26.3698 7.31129 26.459 7.06396 26.459C6.81685 26.459 6.60407 26.3698 6.42563 26.1913C6.24718 26.0131 6.15574 25.798 6.15129 25.546C6.14663 25.2942 6.23807 25.0792 6.42563 24.901L12.283 19.0573L15.424 22.2067H11.7093ZM20.0633 6.62067C19.4484 6.62067 18.9246 6.40422 18.492 5.97134C18.0591 5.53867 17.8426 5.01489 17.8426 4.4C17.8426 3.78511 18.0591 3.26133 18.492 2.82867C18.9246 2.396 19.4484 2.17967 20.0633 2.17967C20.678 2.17967 21.2017 2.396 21.6346 2.82867C22.0673 3.26133 22.2836 3.78511 22.2836 4.4C22.2836 5.01489 22.0673 5.53867 21.6346 5.97134C21.2017 6.40422 20.678 6.62067 20.0633 6.62067ZM9.51463 15.8067C9.2924 15.8067 9.10607 15.7278 8.95563 15.57C8.80518 15.4122 8.72996 15.2222 8.72996 15C8.72996 14.7778 8.80518 14.59 8.95563 14.4367C9.10607 14.2836 9.2924 14.207 9.51463 14.207C9.73685 14.207 9.92685 14.2836 10.0846 14.4367C10.2424 14.59 10.3213 14.7778 10.3213 15C10.3213 15.2222 10.2424 15.4122 10.0846 15.57C9.92685 15.7278 9.73685 15.8067 9.51463 15.8067Z" fill="#777777"/>
</g>
</svg>
