<svg width="10" height="19" viewBox="0 0 10 19" fill="none" xmlns="http://www.w3.org/2000/svg">
<path d="M8.17049 9.49999L0.377488 1.71349C0.214655 1.54632 0.133239 1.34207 0.133239 1.10074C0.133072 0.859404 0.215322 0.651987 0.379989 0.478487C0.555655 0.304821 0.764155 0.217987 1.00549 0.217987C1.24666 0.217987 1.45399 0.304905 1.62749 0.478737L9.55249 8.40524C9.71065 8.56107 9.8249 8.73432 9.89524 8.92499C9.9654 9.11565 10.0005 9.30682 10.0005 9.49849C10.0005 9.69016 9.9659 9.88182 9.89674 10.0735C9.82757 10.2652 9.71282 10.4411 9.55249 10.6012L1.61724 18.5365C1.44157 18.7105 1.23449 18.7949 0.995989 18.7897C0.757656 18.7846 0.551489 18.6951 0.377488 18.5212C0.214655 18.3472 0.131572 18.1414 0.128239 17.9037C0.124739 17.6662 0.207822 17.4605 0.377488 17.2865L8.17049 9.49999Z" fill="#777777"/>
</svg>
