<svg width="32" height="32" viewBox="0 0 32 32" fill="none" xmlns="http://www.w3.org/2000/svg">
<g clip-path="url(#clip0_673_346)">
<path d="M2.3894 27.8799C2.04328 28.2171 2.03607 28.7711 2.3733 29.1172C2.71054 29.4633 3.26451 29.4706 3.61064 29.1333L2.3894 27.8799ZM3.61064 29.1333L14.1595 18.8555L12.9382 17.6021L2.3894 27.8799L3.61064 29.1333Z" fill="#A5210D"/>
<path d="M19.7587 15.9295C17.3706 18.6657 15.385 19.8239 13.5488 18.2288C11.057 16.0641 13.6607 12.517 15.2654 11.3795C15.2986 11.356 15.3136 11.3162 15.3057 11.2763C14.3519 6.49805 21.125 -0.137124 26.5041 5.18097C31.8795 10.4954 23.596 16.7693 19.8586 15.8968C19.8217 15.8882 19.7836 15.9009 19.7587 15.9295Z" stroke="#A5210D" stroke-width="1.75"/>
<path d="M27.6848 7.17882L18.4678 16.6695L14.3809 12.7951L23.4617 3.83413M25.9743 5.04481L13.685 17.699M27.125 11.5531L19.481 3.94036M17.2108 6.18059L25.7782 14.5954M15.3342 9.08676L22.5847 16.0335" stroke="#A5210D"/>
<circle cx="17.3296" cy="25.3297" r="2.23491" transform="rotate(14.4169 17.3296 25.3297)" fill="#A5210D" stroke="#A5210D"/>
</g>
<defs>
<clipPath id="clip0_673_346">
<rect width="32" height="32" fill="white"/>
</clipPath>
</defs>
</svg>
