<svg width="26" height="28" viewBox="0 0 26 28" fill="none" xmlns="http://www.w3.org/2000/svg">
<path d="M1.43065 24.2187L0.230652 23.0257L6.13332 17.123C6.82621 16.4301 7.30254 15.5846 7.56232 14.5863C7.82232 13.5879 7.95232 12.1269 7.95232 10.2033C7.95232 8.97823 8.22232 7.77423 8.76232 6.59134C9.30254 5.40845 10.0969 4.29279 11.1453 3.24434C12.9978 1.39212 15.0261 0.332675 17.2303 0.0660083C19.4345 -0.200658 21.25 0.380231 22.6767 1.80868C24.1064 3.24201 24.6865 5.0649 24.417 7.27734C24.1474 9.48957 23.0888 11.5196 21.241 13.3673C20.1983 14.4102 19.087 15.1943 17.907 15.7197C16.7272 16.245 15.5189 16.5077 14.282 16.5077C12.3818 16.5077 10.9237 16.634 9.90765 16.8867C8.89165 17.1393 8.03299 17.6165 7.33165 18.318L1.43065 24.2187ZM10.8497 13.583C11.9179 14.6468 13.3625 15.0385 15.1837 14.758C17.0045 14.4776 18.6383 13.6136 20.085 12.166C21.537 10.7171 22.4027 9.0929 22.682 7.29334C22.9613 5.49379 22.571 4.07012 21.511 3.02234C20.4439 1.96368 19.014 1.57201 17.2213 1.84734C15.4287 2.1229 13.801 2.98612 12.3383 4.43701C10.8963 5.87501 10.0231 7.49256 9.71865 9.28968C9.41443 11.0868 9.79143 12.5179 10.8497 13.583ZM21.3613 28C20.1402 28 19.1012 27.5706 18.2443 26.7117C17.3874 25.853 16.959 24.8131 16.959 23.592C16.959 22.3709 17.3878 21.3319 18.2453 20.475C19.1029 19.6181 20.1414 19.1897 21.361 19.1897C22.5803 19.1897 23.6199 19.6185 24.4797 20.476C25.3394 21.3338 25.7693 22.3723 25.7693 23.5917C25.7693 24.811 25.3399 25.8506 24.481 26.7103C23.6223 27.5701 22.5824 28 21.3613 28ZM21.364 26.3247C22.1304 26.3247 22.7771 26.0613 23.304 25.5347C23.8307 25.0078 24.094 24.3612 24.094 23.595C24.094 22.8286 23.8307 22.1819 23.304 21.655C22.7771 21.1283 22.1304 20.865 21.364 20.865C20.5978 20.865 19.9512 21.1283 19.4243 21.655C18.8977 22.1819 18.6343 22.8286 18.6343 23.595C18.6343 24.3612 18.8977 25.0078 19.4243 25.5347C19.9512 26.0613 20.5978 26.3247 21.364 26.3247Z" fill="#777777"/>
</svg>
