<svg width="32" height="32" viewBox="0 0 32 32" fill="none" xmlns="http://www.w3.org/2000/svg">
<path d="M29.125 26.5C29.125 26.7244 28.9831 27.0893 28.3704 27.5549C27.7714 28.0101 26.8495 28.4575 25.6317 28.849C23.2062 29.6286 19.8007 30.125 16 30.125C12.1993 30.125 8.79382 29.6286 6.36826 28.849C5.15054 28.4575 4.22858 28.0101 3.62961 27.5549C3.01692 27.0893 2.875 26.7244 2.875 26.5C2.875 26.2756 3.01692 25.9107 3.62961 25.4451C4.22858 24.9899 5.15054 24.5425 6.36826 24.151C8.79382 23.3714 12.1993 22.875 16 22.875C19.8007 22.875 23.2062 23.3714 25.6317 24.151C26.8495 24.5425 27.7714 24.9899 28.3704 25.4451C28.9831 25.9107 29.125 26.2756 29.125 26.5Z" stroke="#A5210D" stroke-width="1.75"/>
<path d="M13.3464 17.1536L13.3525 17.1596L13.3588 17.1655C14.629 18.351 16.0537 19.0754 17.6281 19.3132C17.9305 19.3589 18.2073 19.3081 18.4434 19.1902C18.4148 19.3212 18.4 19.4558 18.4 19.5921V25.5C18.4 26.3284 19.0716 27 19.9 27C20.7284 27 21.4 26.3284 21.4 25.5V20.7466C21.4 20.726 21.4085 20.7062 21.4234 20.692L22.7059 19.4706L24.1301 25.8005C24.2879 26.5018 24.9107 27 25.6295 27C26.6021 27 27.3302 26.108 27.1353 25.1551L26.4905 22.0027L25.491 16.8056L25.491 16.8056L25.4899 16.7998L24.7737 13.2985L25.4 13.542V15.6C25.4 16.4284 26.0716 17.1 26.9 17.1C27.7284 17.1 28.4 16.4284 28.4 15.6V12.6745C28.4 12.0049 28.0017 11.3994 27.3869 11.1341L23.0023 9.24274C22.6453 9.08101 22.2888 8.98518 21.9408 8.96598C22.524 8.50747 22.9 7.79593 22.9 7C22.9 5.62386 21.7761 4.5 20.4 4.5C19.0239 4.5 17.9 5.62386 17.9 7C17.9 8.37048 19.0146 9.49075 20.383 9.49994C20.15 9.70058 19.947 9.95059 19.7737 10.2387L18.776 11.835L18.772 11.8415L18.7681 11.8481C18.4047 12.471 17.9278 12.9658 17.3187 13.326C16.8579 13.5984 16.5251 14.0642 16.4457 14.5505C16.4051 14.7994 16.4288 15.0747 16.5653 15.3253C16.705 15.582 16.9383 15.767 17.2313 15.8682C17.4568 15.9461 17.6864 16.0063 17.9175 16.0487C18.2276 16.1057 18.5419 16.0464 18.8073 15.8958C19.2715 15.6323 19.6978 15.3132 20.0857 14.9778L20.4017 16.5578C20.4353 16.726 20.3804 16.8996 20.2562 17.0179L19.2427 17.9832C19.2488 17.9148 19.2504 17.8456 19.2471 17.7763C19.2068 16.931 18.5172 16.3541 17.797 16.2181C16.9208 16.0527 16.1418 15.6347 15.4536 14.9464L13.1536 12.6464L13.1185 12.6114L13.0773 12.584C12.6864 12.3233 12.2875 12.2 11.7 12.2C11.0602 12.2 10.4228 12.4594 9.92783 13.0651L6.66522 16.3277C6.10553 16.7835 5.63195 17.477 5.92566 18.3581L5.92564 18.3581L5.92703 18.3622L6.94383 21.3278C6.99402 21.4742 6.95647 21.6364 6.84704 21.7459L4.34233 24.2506C3.76274 24.8302 3.76274 25.7698 4.34233 26.3494C4.92674 26.9339 5.87598 26.9283 6.45347 26.337L9.95769 22.7494L10.1 22.6037V22.4V21.342L10.4 21.6189V25.6C10.4 26.4284 11.0716 27.1 11.9 27.1C12.7284 27.1 13.4 26.4284 13.4 25.6V20.6V20.386L13.2452 20.2383L11.4076 18.4842L13.0076 16.8147L13.3464 17.1536ZM17.8 11.1C17.8 9.72386 16.6761 8.6 15.3 8.6C13.9239 8.6 12.8 9.72386 12.8 11.1C12.8 12.4761 13.9239 13.6 15.3 13.6C16.6761 13.6 17.8 12.4761 17.8 11.1Z" fill="#A5210D" stroke="white"/>
<ellipse cx="16" cy="26.5" rx="2" ry="0.5" fill="#A5210D" stroke="#A5210D"/>
</svg>
