<svg width="20" height="22" viewBox="0 0 20 22" fill="none" xmlns="http://www.w3.org/2000/svg">
<path d="M17.9358 19.5H14.2443C14.0659 19.5 13.9167 19.4396 13.7965 19.3188C13.6762 19.1979 13.616 19.0479 13.616 18.8688C13.616 18.6896 13.6762 18.5406 13.7965 18.4218C13.9167 18.3029 14.0659 18.2435 14.2443 18.2435H17.9358C18.0128 18.2435 18.0833 18.2115 18.1475 18.1475C18.2115 18.0833 18.2435 18.0128 18.2435 17.9358V8.18602H3.7565V12.2308C3.7565 12.4091 3.69608 12.5584 3.57525 12.6788C3.45442 12.7989 3.30442 12.859 3.12525 12.859C2.94608 12.859 2.79708 12.7989 2.67825 12.6788C2.55942 12.5584 2.5 12.4091 2.5 12.2308V3.82052C2.5 3.39068 2.65325 3.0226 2.95975 2.71627C3.26625 2.40977 3.63442 2.25652 4.06425 2.25652H5.7565V1.05901C5.7565 0.869015 5.82008 0.709098 5.94725 0.579265C6.07458 0.449598 6.23342 0.384766 6.42375 0.384766C6.61892 0.384766 6.78192 0.449598 6.91275 0.579265C7.04358 0.709098 7.109 0.869015 7.109 1.05901V2.25652H14.9295V1.04151C14.9295 0.852515 14.9919 0.695765 15.1168 0.571265C15.2418 0.446931 15.3968 0.384766 15.582 0.384766C15.772 0.384766 15.9308 0.447431 16.0585 0.572765C16.1862 0.698098 16.25 0.853766 16.25 1.03977V2.25652H17.9358C18.3656 2.25652 18.7337 2.40977 19.0403 2.71627C19.3468 3.0226 19.5 3.39068 19.5 3.82052V17.9358C19.5 18.3656 19.3468 18.7338 19.0403 19.0403C18.7337 19.3468 18.3656 19.5 17.9358 19.5ZM9.06225 17.6283H1C0.821667 17.6283 0.672417 17.5679 0.55225 17.447C0.431917 17.3262 0.37175 17.1762 0.37175 16.997C0.37175 16.8179 0.431917 16.6688 0.55225 16.55C0.672417 16.4312 0.821667 16.3718 1 16.3718H9.06225L6.55775 13.8328C6.44408 13.7123 6.38467 13.5688 6.3795 13.4023C6.37433 13.2358 6.43375 13.0908 6.55775 12.9673C6.67825 12.8468 6.82408 12.7865 6.99525 12.7865C7.16642 12.7865 7.31225 12.8468 7.43275 12.9673L10.927 16.452C11.0828 16.6087 11.1608 16.7915 11.1608 17.0005C11.1608 17.2095 11.0828 17.392 10.927 17.548L7.43275 21.0423C7.31225 21.1628 7.16725 21.2223 6.99775 21.2208C6.82825 21.2193 6.68158 21.1566 6.55775 21.0328C6.43725 20.9123 6.377 20.768 6.377 20.6C6.377 20.432 6.43725 20.2878 6.55775 20.1673L9.06225 17.6283ZM3.7565 6.92952H18.2435V3.82052C18.2435 3.74368 18.2115 3.67318 18.1475 3.60901C18.0833 3.54485 18.0128 3.51277 17.9358 3.51277H4.06425C3.98725 3.51277 3.91667 3.54485 3.8525 3.60901C3.7885 3.67318 3.7565 3.74368 3.7565 3.82052V6.92952Z" fill="#333333"/>
</svg>
