<svg width="32" height="32" viewBox="0 0 32 32" fill="none" xmlns="http://www.w3.org/2000/svg">
<mask id="mask0_551_958" style="mask-type:alpha" maskUnits="userSpaceOnUse" x="0" y="0" width="32" height="32">
<rect width="32" height="32" fill="#D9D9D9"/>
</mask>
<g mask="url(#mask0_551_958)">
<path d="M13.5847 27.0863C11.7687 27.3654 10.0771 27.424 8.51002 27.262C6.94269 27.0998 5.89657 26.8714 5.37169 26.577C5.11946 26.083 4.90702 25.0433 4.73435 23.458C4.56169 21.8729 4.62346 20.1969 4.91969 18.43L13.5847 27.0863ZM15.559 26.6947L5.31102 16.447C5.66502 15.0065 6.16935 13.6362 6.82402 12.336C7.47869 11.0355 8.23713 9.95487 9.09935 9.09398C9.9698 8.21776 11.0806 7.44154 12.4317 6.76532C13.7826 6.08932 15.117 5.61109 16.435 5.33065L26.6837 15.5967C26.3892 16.9978 25.91 18.3519 25.246 19.659C24.5822 20.9661 23.8108 22.0592 22.9317 22.9383C22.0228 23.8483 20.9161 24.6327 19.6117 25.2913C18.307 25.95 16.9561 26.4178 15.559 26.6947ZM12.5737 20.606L20.606 12.5737L19.4264 11.394L11.394 19.4263L12.5737 20.606ZM27.0667 13.6223L18.436 4.92665C20.2491 4.62576 21.9356 4.56176 23.4954 4.73465C25.0551 4.90754 26.078 5.12843 26.564 5.39732C26.866 5.96776 27.1005 7.01709 27.2674 8.54532C27.4345 10.0735 27.3676 11.7659 27.0667 13.6223Z" fill="#A5210D"/>
<path d="M4 9.125C3.51675 9.125 3.125 9.51675 3.125 10C3.125 10.4832 3.51675 10.875 4 10.875L4 9.125ZM4 10.875L9 10.875L9 9.125L4 9.125L4 10.875Z" fill="#A5210D"/>
<path d="M2 13.125C1.51675 13.125 1.125 13.5168 1.125 14C1.125 14.4832 1.51675 14.875 2 14.875L2 13.125ZM2 14.875L7 14.875L7 13.125L2 13.125L2 14.875Z" fill="#A5210D"/>
<path d="M7 6H16" stroke="#A5210D" stroke-width="1.75" stroke-linecap="round"/>
</g>
</svg>
