<svg width="20" height="18" viewBox="0 0 20 18" fill="none" xmlns="http://www.w3.org/2000/svg">
<path d="M5.375 4.24625L8.07875 0.698C8.25825 0.457833 8.47142 0.2815 8.71825 0.169C8.96508 0.0563336 9.22567 0 9.5 0C9.77433 0 10.0349 0.0563336 10.2817 0.169C10.5286 0.2815 10.7417 0.457833 10.9212 0.698L13.625 4.24625L17.7595 5.64225C18.1545 5.76925 18.4625 5.99317 18.6835 6.314C18.9047 6.635 19.0152 6.9895 19.0152 7.3775C19.0152 7.55667 18.9891 7.73525 18.9368 7.91325C18.8844 8.09125 18.7984 8.26183 18.6788 8.425L15.9865 12.1615L16.0865 16.127C16.1032 16.6535 15.9296 17.0972 15.5658 17.4583C15.2021 17.8194 14.7783 18 14.2943 18C14.2801 18 14.1128 17.9782 13.7923 17.9345L9.5 16.7038L5.20775 17.9345C5.12442 17.9678 5.03842 17.9871 4.94975 17.9923C4.86108 17.9974 4.77975 18 4.70575 18C4.21725 18 3.79225 17.8194 3.43075 17.4583C3.06925 17.0972 2.89683 16.6535 2.9135 16.127L3.0135 12.1365L0.3365 8.425C0.216833 8.26117 0.130833 8.08992 0.0785 7.91125C0.0261667 7.73242 0 7.55367 0 7.375C0 6.99783 0.109833 6.64708 0.3295 6.32275C0.549167 5.99842 0.856 5.76842 1.25 5.63275L5.375 4.24625Z" fill="#A5210D"/>
</svg>
