<svg width="32" height="32" viewBox="0 0 32 32" fill="none" xmlns="http://www.w3.org/2000/svg">
<mask id="mask0_490_844" style="mask-type:alpha" maskUnits="userSpaceOnUse" x="0" y="0" width="32" height="32">
<rect width="32" height="32" fill="#D9D9D9"/>
</mask>
<g mask="url(#mask0_490_844)">
<path d="M7.52298 23.07C8.64031 22.2569 9.5052 21.2213 10.1176 19.9633C10.7299 18.7051 11.036 17.384 11.036 16C11.036 14.616 10.7299 13.2927 10.1176 12.03C9.5052 10.7673 8.64031 9.72657 7.52298 8.90768C6.69054 9.90879 6.06331 11.014 5.64131 12.2233C5.21954 13.4329 5.00865 14.6918 5.00865 16C5.00865 17.3082 5.21954 18.5648 5.64131 19.7697C6.06331 20.9746 6.69054 22.0747 7.52298 23.07ZM16 26.9913C17.3486 26.9913 18.643 26.7658 19.883 26.3147C21.1228 25.8633 22.2523 25.1887 23.2716 24.2907C22.0154 23.2673 21.0413 22.0312 20.3493 20.5823C19.6571 19.1337 19.311 17.6062 19.311 16C19.311 14.3938 19.6571 12.864 20.3493 11.4107C21.0413 9.95734 22.0154 8.71901 23.2716 7.69568C22.2523 6.80679 21.1228 6.13668 19.883 5.68534C18.643 5.23423 17.3486 5.00868 16 5.00868C14.6513 5.00868 13.357 5.23423 12.117 5.68534C10.8772 6.13668 9.74765 6.80679 8.72831 7.69568C9.98454 8.71901 10.9624 9.95734 11.662 11.4107C12.3613 12.864 12.711 14.3938 12.711 16C12.711 17.6062 12.3613 19.1337 11.662 20.5823C10.9624 22.0312 9.98454 23.2673 8.72831 24.2907C9.74765 25.1887 10.8772 25.8633 12.117 26.3147C13.357 26.7658 14.6513 26.9913 16 26.9913ZM24.4906 23.07C25.3289 22.0747 25.9552 20.9746 26.3696 19.7697C26.7841 18.5648 26.9913 17.3082 26.9913 16C26.9913 14.6918 26.7841 13.4329 26.3696 12.2233C25.9552 11.014 25.3289 9.90879 24.4906 8.90768C23.3733 9.72657 22.5099 10.7673 21.9003 12.03C21.291 13.2927 20.9863 14.616 20.9863 16C20.9863 17.384 21.291 18.7051 21.9003 19.9633C22.5099 21.2213 23.3733 22.2569 24.4906 23.07ZM16.0023 28.6667C14.2594 28.6667 12.6172 28.3342 11.0756 27.6693C9.53409 27.0045 8.19098 26.0998 7.04631 24.9553C5.90142 23.8111 4.99631 22.4686 4.33098 20.9277C3.66587 19.3868 3.33331 17.745 3.33331 16.0023C3.33331 14.2503 3.66576 12.6059 4.33065 11.069C4.99554 9.5319 5.9002 8.19101 7.04465 7.04634C8.18887 5.90146 9.53142 4.99634 11.0723 4.33101C12.6132 3.6659 14.255 3.33334 15.9976 3.33334C17.7496 3.33334 19.3941 3.66579 20.931 4.33068C22.4681 4.99557 23.809 5.90023 24.9536 7.04468C26.0985 8.1889 27.0036 9.52912 27.669 11.0653C28.3341 12.6018 28.6666 14.2459 28.6666 15.9977C28.6666 17.7406 28.3342 19.3828 27.6693 20.9243C27.0044 22.4659 26.0998 23.809 24.9553 24.9537C23.8111 26.0986 22.4709 27.0037 20.9346 27.669C19.3982 28.3341 17.7541 28.6667 16.0023 28.6667Z" fill="#777777"/>
</g>
</svg>
