<svg width="61" height="76" viewBox="0 0 61 76" fill="none" xmlns="http://www.w3.org/2000/svg">
<path d="M13.52 70.974H47.48V58.636C47.48 53.9006 45.8337 49.8723 42.541 46.551C39.249 43.2296 35.2353 41.569 30.5 41.569C25.7647 41.569 21.751 43.2313 18.459 46.556C15.1663 49.88 13.52 53.9066 13.52 58.636V70.974ZM30.5 34.431C35.2353 34.431 39.249 32.762 42.541 29.424C45.8337 26.086 47.48 22.0523 47.48 17.323V5.02598H13.52V17.323C13.52 22.0583 15.1663 26.0933 18.459 29.428C21.751 32.7633 25.7647 34.431 30.5 34.431ZM3.013 76C2.301 76 1.70433 75.758 1.223 75.274C0.741 74.7893 0.5 74.1893 0.5 73.474C0.5 72.758 0.741 72.1623 1.223 71.687C1.70433 71.2116 2.301 70.974 3.013 70.974H8.495V58.636C8.495 53.7913 9.91433 49.4516 12.753 45.617C15.591 41.7816 19.2913 39.2426 23.854 38C19.2913 36.704 15.591 34.1363 12.753 30.297C9.91433 26.4583 8.495 22.1336 8.495 17.323V5.02598H3.013C2.301 5.02598 1.70433 4.78364 1.223 4.29898C0.741 3.81498 0.5 3.21498 0.5 2.49898C0.5 1.78364 0.741 1.18831 1.223 0.712978C1.70433 0.237644 2.301 -2.28882e-05 3.013 -2.28882e-05H57.987C58.699 -2.28882e-05 59.2957 0.241978 59.777 0.725978C60.259 1.21064 60.5 1.81064 60.5 2.52598C60.5 3.24198 60.259 3.83764 59.777 4.31298C59.2957 4.78831 58.699 5.02598 57.987 5.02598H52.505V17.323C52.505 22.1336 51.0857 26.4583 48.247 30.297C45.409 34.1363 41.7087 36.704 37.146 38C41.7087 39.2426 45.409 41.7816 48.247 45.617C51.0857 49.4516 52.505 53.7913 52.505 58.636V70.974H57.987C58.699 70.974 59.2957 71.2163 59.777 71.701C60.259 72.185 60.5 72.785 60.5 73.501C60.5 74.2163 60.259 74.8116 59.777 75.287C59.2957 75.7623 58.699 76 57.987 76H3.013Z" fill="#C2C2C2"/>
</svg>
