<svg width="21" height="21" viewBox="0 0 21 21" fill="none" xmlns="http://www.w3.org/2000/svg">
<path d="M16.625 4.375L11.9 9.1M16.625 4.375H12.25M16.625 4.375V8.75M4.375 12.25C4.375 13.4103 4.83594 14.5231 5.65641 15.3436C6.47688 16.1641 7.58968 16.625 8.75 16.625C9.91032 16.625 11.0231 16.1641 11.8436 15.3436C12.6641 14.5231 13.125 13.4103 13.125 12.25C13.125 11.0897 12.6641 9.97688 11.8436 9.15641C11.0231 8.33594 9.91032 7.875 8.75 7.875C7.58968 7.875 6.47688 8.33594 5.65641 9.15641C4.83594 9.97688 4.375 11.0897 4.375 12.25Z" stroke="black" stroke-width="2" stroke-linecap="round" stroke-linejoin="round"/>
</svg>
