<svg width="32" height="32" viewBox="0 0 32 32" fill="none" xmlns="http://www.w3.org/2000/svg">
<path d="M15.1 15.3C15.8543 16.0543 16.7224 16.5241 17.7043 16.7095C18.2551 16.8134 18.721 17.2402 18.7476 17.8001C18.7761 18.3989 18.2955 18.9084 17.7028 18.8189C16.2394 18.5978 14.9052 17.9248 13.7 16.8L13 16.1L10.7 18.5L12.9 20.6V25.6C12.9 26.1523 12.4523 26.6 11.9 26.6C11.3477 26.6 10.9 26.1523 10.9 25.6V21.4L9.6 20.2V22.4L6.09579 25.9876C5.71285 26.3797 5.08341 26.3834 4.69588 25.9959C4.31156 25.6116 4.31156 24.9884 4.69588 24.6041L7.20059 22.0994C7.44503 21.855 7.52892 21.4927 7.41681 21.1657L6.4 18.2C6.2 17.6 6.5 17.1 7 16.7L10.3 13.4C10.7 12.9 11.2 12.7 11.7 12.7C12.2 12.7 12.5 12.8 12.8 13L15.1 15.3ZM27.9 15.6C27.9 16.1523 27.4523 16.6 26.9 16.6C26.3477 16.6 25.9 16.1523 25.9 15.6V13.2L24.1 12.5L25 16.9L26 22.1L26.6454 25.2553C26.7769 25.8982 26.2857 26.5 25.6295 26.5C25.1446 26.5 24.7244 26.1638 24.6179 25.6907L23.1788 19.2947C23.1001 18.9448 22.6698 18.8144 22.4101 19.0618L21.0786 20.3299C20.9645 20.4385 20.9 20.5891 20.9 20.7466V25.5C20.9 26.0523 20.4523 26.5 19.9 26.5C19.3477 26.5 18.9 26.0523 18.9 25.5V19.5921C18.9 19.214 19.055 18.8524 19.3288 18.5917L20.601 17.38C20.8494 17.1434 20.9592 16.7961 20.8919 16.4597L20.4 14C19.866 14.534 19.2529 15.0679 18.5605 15.4609C18.3928 15.5561 18.1975 15.5918 18.0079 15.557C17.8015 15.519 17.5962 15.4652 17.3945 15.3956C16.6344 15.133 16.881 14.1657 17.5732 13.7563C18.2609 13.3497 18.7968 12.7912 19.2 12.1L20.2 10.5C20.8 9.5 21.7 9.2 22.8 9.7L27.1888 11.5932C27.6204 11.7794 27.9 12.2045 27.9 12.6745V15.6ZM15.3 9.1C16.4 9.1 17.3 10 17.3 11.1C17.3 12.2 16.4 13.1 15.3 13.1C14.2 13.1 13.3 12.2 13.3 11.1C13.3 10 14.2 9.1 15.3 9.1ZM20.4 5C21.5 5 22.4 5.9 22.4 7C22.4 8.1 21.5 9 20.4 9C19.3 9 18.4 8.1 18.4 7C18.4 5.9 19.3 5 20.4 5Z" fill="#777777"/>
</svg>
