<svg width="32" height="32" viewBox="0 0 32 32" fill="none" xmlns="http://www.w3.org/2000/svg">
<mask id="mask0_551_520" style="mask-type:alpha" maskUnits="userSpaceOnUse" x="0" y="0" width="32" height="32">
<rect width="32" height="32" fill="#D9D9D9"/>
</mask>
<g mask="url(#mask0_551_520)">
<path d="M16 28C22.63 28 28 22.63 28 16C28 9.37 22.63 4 16 4C9.37 4 4 9.37 4 16C4 22.63 9.37 28 16 28Z" stroke="#777777" stroke-width="1.75" stroke-miterlimit="2" stroke-linejoin="round"/>
<path d="M8 24C10.1143 21.9257 11.4286 19.1943 11.4286 16C11.4286 12.8457 10.0686 10.0686 8 8M24 24C21.8857 21.9257 20.5714 19.1943 20.5714 16C20.5714 12.8457 21.9314 10.0686 24 8M18.2857 16H22.8571M9.14286 16H13.7143M19.4286 21.7143L22.8571 20M22.8571 12L19.4286 10.2857M12.5714 21.7143L9.14286 20M9.14286 12L12.5714 10.2857" stroke="#777777" stroke-width="1.75" stroke-miterlimit="2" stroke-linecap="round" stroke-linejoin="round"/>
</g>
</svg>
