<svg width="32" height="32" viewBox="0 0 32 32" fill="none" xmlns="http://www.w3.org/2000/svg">
<mask id="mask0_571_1129" style="mask-type:alpha" maskUnits="userSpaceOnUse" x="0" y="0" width="32" height="32">
<rect width="32" height="32" fill="#D9D9D9"/>
</mask>
<g mask="url(#mask0_571_1129)">
<path d="M3.37366 15.1557C3.4261 14.0274 3.66566 12.8701 4.09232 11.6837C4.51921 10.4974 5.07732 9.43477 5.76666 8.49566C6.87088 9.51966 7.70055 10.6041 8.25566 11.749C8.81055 12.8941 9.14866 14.0297 9.26999 15.1557H3.37366ZM22.73 15.1557C22.8513 14.0297 23.1812 12.9024 23.7197 11.774C24.2581 10.6455 25.096 9.56788 26.2333 8.54099C26.9227 9.46988 27.4808 10.5264 27.9077 11.7107C28.3343 12.8951 28.5739 14.0434 28.6263 15.1557H22.73ZM5.76666 23.4453C5.07732 22.5109 4.52355 21.4591 4.10532 20.29C3.68688 19.1211 3.44299 17.9725 3.37366 16.8443H9.26999C9.14866 17.9703 8.81055 19.0939 8.25566 20.215C7.70055 21.3361 6.87088 22.4129 5.76666 23.4453ZM26.2333 23.4453C25.096 22.4129 24.2581 21.3361 23.7197 20.215C23.1812 19.0939 22.8513 17.9703 22.73 16.8443H28.6263C28.5739 17.9565 28.3343 19.1012 27.9077 20.2783C27.4808 21.4552 26.9227 22.5109 26.2333 23.4453ZM10.9787 15.1557C10.8435 13.7641 10.4621 12.4171 9.83432 11.1147C9.20632 9.81199 8.2151 8.52332 6.86066 7.24866C7.85332 6.21688 9.04977 5.3431 10.45 4.62732C11.8502 3.91177 13.4188 3.49388 15.1557 3.37366V15.1557H10.9787ZM16.8443 15.1557V3.37366C18.5812 3.49388 20.152 3.91177 21.5567 4.62732C22.9615 5.3431 24.1632 6.21688 25.1617 7.24866C23.7883 8.49888 22.7887 9.78144 22.1627 11.0963C21.5369 12.411 21.1564 13.7641 21.0213 15.1557H16.8443ZM15.1557 28.6263C13.3459 28.5061 11.7591 28.0805 10.3953 27.3497C9.03155 26.6185 7.85332 25.737 6.86066 24.705C8.23399 23.4463 9.22988 22.173 9.84832 20.885C10.4668 19.597 10.8435 18.2501 10.9787 16.8443H15.1557V28.6263ZM16.8443 28.6263V16.8443H21.0213C21.1564 18.2501 21.5369 19.6031 22.1627 20.9033C22.7887 22.2035 23.7883 23.4817 25.1617 24.7377C24.1632 25.7694 22.9759 26.6454 21.5997 27.3657C20.2232 28.0859 18.6381 28.5061 16.8443 28.6263Z" fill="#A5210D"/>
</g>
</svg>
