<svg width="32" height="32" viewBox="0 0 32 32" fill="none" xmlns="http://www.w3.org/2000/svg">
<mask id="mask0_397_195" style="mask-type:alpha" maskUnits="userSpaceOnUse" x="0" y="0" width="32" height="32">
<rect width="32" height="32" fill="#D9D9D9"/>
</mask>
<g mask="url(#mask0_397_195)">
<path d="M2.711 14.8777C2.77767 13.8037 3.02589 12.6686 3.45567 11.4723C3.88522 10.2759 4.43333 9.211 5.1 8.27767C6.29267 9.34433 7.16855 10.4388 7.72766 11.561C8.287 12.6832 8.64444 13.7888 8.8 14.8777H2.711ZM23.2 14.8777C23.3556 13.7888 23.7111 12.6851 24.2667 11.5667C24.8222 10.4482 25.7 9.35566 26.9 8.289C27.5667 9.21478 28.1148 10.2777 28.5443 11.4777C28.9741 12.6777 29.2223 13.811 29.289 14.8777H23.2ZM5.1 23.689C4.43333 22.763 3.88522 21.7056 3.45567 20.5167C3.02589 19.3278 2.77767 18.1963 2.711 17.1223H8.8C8.64444 18.2112 8.287 19.3112 7.72766 20.4223C7.16855 21.5334 6.29267 22.6223 5.1 23.689ZM26.9 23.689C25.7 22.6223 24.8222 21.5334 24.2667 20.4223C23.7111 19.3112 23.3556 18.2112 23.2 17.1223H29.289C29.2223 18.189 28.9741 19.3186 28.5443 20.511C28.1148 21.7037 27.5667 22.763 26.9 23.689ZM11.0557 14.8777C10.8779 13.4408 10.4593 12.0482 9.8 10.7C9.14066 9.35178 8.05544 7.97766 6.54433 6.57767C7.537 5.59989 8.72778 4.75178 10.1167 4.03333C11.5056 3.31489 13.0926 2.87411 14.8777 2.711V14.8777H11.0557ZM17.1223 14.8777V2.711C18.9074 2.87411 20.4981 3.31489 21.8943 4.03333C23.2908 4.75178 24.4852 5.59989 25.4777 6.57767C23.9592 7.97033 22.8686 9.34255 22.2057 10.6943C21.5426 12.0463 21.1221 13.4408 20.9443 14.8777H17.1223ZM14.8777 29.289C13.011 29.1259 11.4037 28.6796 10.0557 27.95C8.70744 27.2204 7.537 26.3668 6.54433 25.389C8.063 23.9963 9.15011 22.6297 9.80567 21.289C10.4612 19.9481 10.8779 18.5592 11.0557 17.1223H14.8777V29.289ZM17.1223 29.289V17.1223H20.9443C21.1221 18.5592 21.5426 19.9499 22.2057 21.2943C22.8686 22.6388 23.9592 24.0073 25.4777 25.4C24.4852 26.3778 23.3093 27.2297 21.95 27.9557C20.5907 28.6814 18.9814 29.1259 17.1223 29.289Z" fill="#B43C14"/>
</g>
</svg>
