<svg width="32" height="32" viewBox="0 0 32 32" fill="none" xmlns="http://www.w3.org/2000/svg">
<mask id="mask0_542_565" style="mask-type:alpha" maskUnits="userSpaceOnUse" x="0" y="0" width="32" height="32">
<rect width="32" height="32" fill="#D9D9D9"/>
</mask>
<g mask="url(#mask0_542_565)">
<path d="M28.4727 13.7307L16.8377 6.95034V3.36067C19.7783 3.55267 22.3127 4.60423 24.4407 6.51534C26.5685 8.42645 27.9125 10.8316 28.4727 13.7307ZM9.52735 18.7403V5.14867C10.3182 4.66778 11.1602 4.27512 12.0533 3.97067C12.9467 3.666 13.9853 3.46267 15.1693 3.36067V15.4393L9.52735 18.7403ZM4.62135 21.6103C4.19512 20.7415 3.87179 19.842 3.65135 18.912C3.4309 17.982 3.32068 17.0113 3.32068 16C3.32068 14.1224 3.70657 12.3468 4.47835 10.673C5.25012 8.99923 6.37479 7.55267 7.85235 6.33334V19.7197L4.62135 21.6103ZM9.84635 27.0367C8.95168 26.5667 8.12457 25.9829 7.36501 25.2853C6.60546 24.588 5.96557 23.8382 5.44535 23.036L16.007 16.887L21.7247 20.2153L9.84635 27.0367ZM16.007 28.6667C15.261 28.6667 14.5215 28.6038 13.7883 28.478C13.0555 28.3525 12.3688 28.1669 11.7283 27.9213L23.364 21.188L26.5547 23.0307C25.3656 24.78 23.8515 26.1567 22.0123 27.1607C20.1735 28.1647 18.1717 28.6667 16.007 28.6667ZM27.3727 21.577L16.8377 15.4393V8.90267L28.6537 15.8283C28.6463 16.8426 28.545 17.8282 28.3497 18.7853C28.1541 19.7427 27.8285 20.6732 27.3727 21.577Z" fill="#A5210D"/>
</g>
</svg>
