<svg width="32" height="32" viewBox="0 0 32 32" fill="none" xmlns="http://www.w3.org/2000/svg">
<g clip-path="url(#clip0_551_950)">
<path d="M15.5 17.5L22.4346 4.55555C22.7827 3.90565 23.4602 3.5 24.1975 3.5H28.3227C29.0801 3.5 29.5626 4.30924 29.2024 4.97552L20 22C18 25 17.5 26.2188 16 26.5C9.6 27.7 6.5 27.5 4.49997 26.5C2.41764 25.4588 2.00001 21.3333 2.50001 19C3.00001 16.5 4.00001 15.5 6.00001 15.5C7.50001 15.5 11.5 17.1667 13.5 18C14.7 18.4 15.3334 17.8333 15.5 17.5Z" fill="#A5210D"/>
<path d="M11 17L7.5 27.5" stroke="white" stroke-width="1.75" stroke-linecap="square" stroke-linejoin="round"/>
<path d="M16 25.3333C16 23.1267 16.46 22.6667 18.6667 22.6667H24C26.2067 22.6667 26.6667 23.1267 26.6667 25.3333C26.6667 27.54 26.2067 28 24 28H18.6667C16.46 28 16 27.54 16 25.3333Z" fill="#A5210D" stroke="white" stroke-width="1.75" stroke-linecap="round" stroke-linejoin="round"/>
</g>
<defs>
<clipPath id="clip0_551_950">
<rect width="32" height="32" fill="white"/>
</clipPath>
</defs>
</svg>
