<?xml version="1.0" encoding="utf-8"?>
<!-- Generator: Adobe Illustrator 27.3.1, SVG Export Plug-In . SVG Version: 6.00 Build 0)  -->
<svg version="1.1" id="Layer_1" xmlns="http://www.w3.org/2000/svg" xmlns:xlink="http://www.w3.org/1999/xlink" x="0px" y="0px"
	 viewBox="0 0 32 32" style="enable-background:new 0 0 32 32;" xml:space="preserve">
<style type="text/css">
	.st0{clip-path:url(#SVGID_00000043454759887361096580000001639960584829819319_);}
	.st1{fill:#A5210D;}
	.st2{fill:none;stroke:#FFFFFF;stroke-width:1.75;stroke-linecap:square;stroke-linejoin:round;}
	.st3{fill:#A5210D;stroke:#FFFFFF;stroke-width:1.75;stroke-linecap:round;stroke-linejoin:round;}
</style>
<g>
	<defs>
		<rect id="SVGID_1_" width="32" height="32"/>
	</defs>
	<clipPath id="SVGID_00000099641563170927823990000004081119977996349099_">
		<use xlink:href="#SVGID_1_"  style="overflow:visible;"/>
	</clipPath>
	<g style="clip-path:url(#SVGID_00000099641563170927823990000004081119977996349099_);">
		<g>
			<g>
				<path class="st1" d="M28.3,3.5h-4.1c-0.7,0-1.4,0.4-1.8,1.1l-6.9,12.9c-0.2,0.3-0.8,0.9-2,0.5c-2-0.8-6-2.5-7.5-2.5
					c-2,0-3,1-3.5,3.5c-0.5,2.3-0.1,6.5,2,7.5c2,1,5.1,1.2,11.5,0c1.5-0.3,2-1.5,4-4.5l9.2-17C29.6,4.3,29.1,3.5,28.3,3.5z"/>
			</g>
		</g>
		<g>
			<g>
				<line class="st2" x1="11" y1="17" x2="7.5" y2="27.5"/>
			</g>
		</g>
		<path class="st3" d="M16,25.3c0-2.2,0.5-2.7,2.7-2.7H24c2.2,0,2.7,0.5,2.7,2.7c0,2.2-0.5,2.7-2.7,2.7h-5.3
			C16.5,28,16,27.5,16,25.3z"/>
	</g>
</g>
</svg>
