<svg width="21" height="18" viewBox="0 0 21 18" fill="none" xmlns="http://www.w3.org/2000/svg">
<path d="M13.6398 12.782C13.4248 12.782 13.2407 12.7054 13.0875 12.5523C12.9344 12.3991 12.8578 12.215 12.8578 12V8.00001C12.8578 7.78635 12.9344 7.60151 13.0875 7.44551C13.2407 7.28951 13.4248 7.21151 13.6398 7.21151H16.1295C16.3432 7.21151 16.528 7.28951 16.684 7.44551C16.84 7.60151 16.918 7.78635 16.918 8.00001V12C16.918 12.215 16.84 12.3991 16.684 12.5523C16.528 12.7054 16.3432 12.782 16.1295 12.782H13.6398ZM13.9283 11.7115H15.8475V8.28201H13.9283V11.7115ZM5.15252 11.7115H7.61027C7.76394 11.7115 7.89102 11.7633 7.99152 11.867C8.09202 11.9705 8.14227 12.0991 8.14227 12.2528C8.14227 12.4066 8.09202 12.5333 7.99152 12.6328C7.89102 12.7323 7.76394 12.782 7.61027 12.782H4.87052C4.65686 12.782 4.47202 12.7054 4.31602 12.5523C4.16002 12.3991 4.08202 12.215 4.08202 12V10.3308C4.08202 10.1171 4.16677 9.92693 4.33627 9.76026C4.50577 9.5936 4.69669 9.51026 4.90902 9.51026H7.07177V8.28201H4.62052C4.46819 8.28201 4.34036 8.23176 4.23702 8.13126C4.13369 8.03076 4.08202 7.9036 4.08202 7.74976C4.08202 7.5961 4.13369 7.46801 4.23702 7.36551C4.34036 7.26285 4.46819 7.21151 4.62052 7.21151H7.36027C7.57527 7.21151 7.75936 7.28951 7.91252 7.44551C8.06569 7.60151 8.14227 7.78635 8.14227 8.00001V9.66926C8.14227 9.88293 8.05894 10.0731 7.89227 10.2398C7.72561 10.4064 7.53544 10.4898 7.32177 10.4898H5.15252V11.7115ZM2.54502 17.3943C2.11519 17.3943 1.74702 17.241 1.44052 16.9345C1.13402 16.628 0.980774 16.2598 0.980774 15.83V4.22751C0.980774 3.79785 1.13402 3.42976 1.44052 3.12326C1.74702 2.81676 2.11519 2.66351 2.54502 2.66351H5.87177V1.29176C5.87177 1.11376 5.93236 0.964514 6.05352 0.844014C6.17452 0.723681 6.32444 0.663513 6.50327 0.663513C6.68227 0.663513 6.83119 0.723681 6.95002 0.844014C7.06886 0.964514 7.12827 1.11376 7.12827 1.29176V2.66351H13.8718V1.29176C13.8718 1.11376 13.9324 0.964514 14.0535 0.844014C14.1745 0.723681 14.3244 0.663513 14.5033 0.663513C14.6823 0.663513 14.8312 0.723681 14.95 0.844014C15.0689 0.964514 15.1283 1.11376 15.1283 1.29176V2.66351H18.455C18.8849 2.66351 19.253 2.81676 19.5595 3.12326C19.866 3.42976 20.0193 3.79785 20.0193 4.22751V15.83C20.0193 16.2598 19.866 16.628 19.5595 16.9345C19.253 17.241 18.8849 17.3943 18.455 17.3943H2.54502ZM2.66677 16.016H9.96802V15.1635C9.96802 15.0098 10.0183 14.8828 10.1188 14.7823C10.2193 14.6818 10.3464 14.6315 10.5003 14.6315C10.6539 14.6315 10.782 14.6818 10.8845 14.7823C10.9872 14.8828 11.0385 15.0098 11.0385 15.1635V16.016H18.3333C18.4103 16.016 18.4808 15.9839 18.5448 15.9198C18.6089 15.8558 18.641 15.7853 18.641 15.7083V4.34951C18.641 4.27251 18.6089 4.20193 18.5448 4.13776C18.4808 4.07376 18.4103 4.04176 18.3333 4.04176H11.0385V4.88776C11.0385 5.04343 10.9867 5.1721 10.883 5.27376C10.7795 5.37543 10.6509 5.42626 10.4973 5.42626C10.3434 5.42626 10.2168 5.37543 10.1173 5.27376C10.0178 5.1721 9.96802 5.04343 9.96802 4.88776V4.04176H2.66677C2.58977 4.04176 2.51927 4.07376 2.45527 4.13776C2.39111 4.20193 2.35902 4.27251 2.35902 4.34951V15.7083C2.35902 15.7853 2.39111 15.8558 2.45527 15.9198C2.51927 15.9839 2.58977 16.016 2.66677 16.016ZM10.5005 8.89551C10.3284 8.89551 10.1859 8.83926 10.073 8.72676C9.96019 8.61426 9.90377 8.47193 9.90377 8.29976C9.90377 8.12776 9.96011 7.98535 10.0728 7.87251C10.1853 7.75968 10.3275 7.70326 10.4995 7.70326C10.6717 7.70326 10.8142 7.75951 10.927 7.87201C11.0399 7.98451 11.0963 8.12685 11.0963 8.29901C11.0963 8.47101 11.0399 8.61343 10.9273 8.72626C10.8148 8.8391 10.6725 8.89551 10.5005 8.89551ZM10.5005 12.3545C10.3284 12.3545 10.1859 12.2983 10.073 12.1858C9.96019 12.0733 9.90377 11.9309 9.90377 11.7588C9.90377 11.5868 9.96011 11.4443 10.0728 11.3315C10.1853 11.2187 10.3275 11.1623 10.4995 11.1623C10.6717 11.1623 10.8142 11.2185 10.927 11.331C11.0399 11.4435 11.0963 11.5858 11.0963 11.758C11.0963 11.93 11.0399 12.0724 10.9273 12.1853C10.8148 12.2981 10.6725 12.3545 10.5005 12.3545Z" fill="#333333"/>
</svg>
