<svg width="32" height="32" viewBox="0 0 32 32" fill="none" xmlns="http://www.w3.org/2000/svg">
<mask id="mask0_542_484" style="mask-type:alpha" maskUnits="userSpaceOnUse" x="0" y="0" width="32" height="32">
<rect width="32" height="32" fill="#D9D9D9"/>
</mask>
<g mask="url(#mask0_542_484)">
<path d="M4.78967 17.6667L14.171 4.09166V17.6667H4.78967ZM7.98533 15.9913H12.4957V9.41699L7.98533 15.9913ZM17.354 17.6667C17.6787 16.6787 17.9501 15.495 18.1683 14.1157C18.3866 12.7365 18.4957 11.3105 18.4957 9.83766C18.4957 8.32944 18.3877 6.87855 18.1717 5.48499C17.9559 4.09166 17.6876 2.87788 17.3667 1.84366C18.5291 2.35521 19.6938 3.13155 20.8607 4.17266C22.0276 5.21377 23.0882 6.43466 24.0427 7.83532C24.9971 9.23621 25.7894 10.776 26.4197 12.4547C27.0499 14.1333 27.4071 15.8707 27.4913 17.6667H17.354ZM19.4967 15.9913H25.6367C25.2847 13.9327 24.5791 11.983 23.52 10.1423C22.4611 8.30144 21.2299 6.76333 19.8263 5.52799C19.9466 6.25622 20.0341 6.99332 20.089 7.73932C20.1437 8.4851 20.171 9.18455 20.171 9.83766C20.171 10.8559 20.104 11.9129 19.97 13.0087C19.8362 14.1042 19.6784 15.0984 19.4967 15.9913ZM12 25.4737C11.2696 25.4737 10.5613 25.3078 9.87533 24.976C9.18911 24.6444 8.564 24.1778 8 23.576C7.74022 23.8404 7.43822 24.1001 7.094 24.355C6.74978 24.6101 6.41444 24.802 6.088 24.9307C5.41044 24.46 4.80644 23.8433 4.276 23.0807C3.74556 22.318 3.36633 21.5104 3.13833 20.658H28.8617C28.6337 21.5104 28.2544 22.318 27.724 23.0807C27.1936 23.8433 26.5896 24.46 25.912 24.9307C25.5856 24.802 25.2502 24.6101 24.906 24.355C24.5618 24.1001 24.2598 23.8404 24 23.576C23.4371 24.1778 22.8123 24.6444 22.1257 24.976C21.439 25.3078 20.7304 25.4737 20 25.4737C19.2696 25.4737 18.5591 25.3078 17.8687 24.976C17.1784 24.6444 16.5556 24.1735 16 23.5633C15.4444 24.1735 14.8216 24.6444 14.1313 24.976C13.4409 25.3078 12.7304 25.4737 12 25.4737ZM3 30.3333V28.658H4C4.71111 28.658 5.39889 28.5447 6.06333 28.318C6.72756 28.0911 7.37311 27.7233 8 27.2147C8.63533 27.7233 9.28678 28.09 9.95433 28.3147C10.6219 28.5391 11.3038 28.6513 12 28.6513C12.7111 28.6513 13.3956 28.5391 14.0533 28.3147C14.7113 28.09 15.3602 27.7233 16 27.2147C16.6353 27.7233 17.2868 28.09 17.9543 28.3147C18.6219 28.5391 19.3038 28.6513 20 28.6513C20.7111 28.6513 21.3977 28.5391 22.0597 28.3147C22.7219 28.09 23.3687 27.7233 24 27.2147C24.6398 27.7233 25.2887 28.0911 25.9467 28.318C26.6044 28.5447 27.2889 28.658 28 28.658H29V30.3333H28C27.3607 30.3333 26.704 30.2433 26.03 30.0633C25.3558 29.8831 24.6791 29.5728 24 29.1323C23.3209 29.5728 22.6442 29.8831 21.97 30.0633C21.296 30.2433 20.6393 30.3333 20 30.3333C19.3607 30.3333 18.704 30.2433 18.03 30.0633C17.3558 29.8831 16.6791 29.5728 16 29.1323C15.3209 29.5728 14.6442 29.8831 13.97 30.0633C13.296 30.2433 12.6393 30.3333 12 30.3333C11.3607 30.3333 10.704 30.2433 10.03 30.0633C9.35578 29.8831 8.67911 29.5728 8 29.1323C7.32089 29.5728 6.64422 29.8831 5.97 30.0633C5.296 30.2433 4.63933 30.3333 4 30.3333H3Z" fill="#777777"/>
</g>
</svg>
