<svg width="20" height="18" viewBox="0 0 20 18" fill="none" xmlns="http://www.w3.org/2000/svg">
<path d="M9.5 0.75C9.62615 0.75 9.74465 0.768609 9.8584 0.806641L9.9707 0.851562C10.0911 0.906466 10.2081 0.997373 10.3203 1.14746L10.3242 1.15234L13.0283 4.70117L13.168 4.88379L13.3848 4.95703L17.5195 6.35254L17.5303 6.35645C17.7782 6.43623 17.9448 6.56426 18.0654 6.73926C18.2008 6.93573 18.2656 7.14267 18.2656 7.37793C18.2656 7.48284 18.2496 7.59055 18.2168 7.70215C18.204 7.74566 18.1865 7.79052 18.1631 7.83691L18.0742 7.98145L18.0703 7.98633L15.3779 11.7227L15.2305 11.9277L15.2363 12.1807L15.3369 16.1455V16.1504C15.3472 16.4754 15.2486 16.7159 15.0371 16.9258C14.8133 17.1481 14.585 17.2414 14.3242 17.248C14.3066 17.2458 14.2834 17.244 14.2549 17.2402C14.1823 17.2308 14.079 17.2165 13.9443 17.1982L9.70703 15.9824L9.5 15.9238L9.29297 15.9824L5.00098 17.2139L4.96484 17.2236L4.92969 17.2383C4.92059 17.2419 4.91338 17.2427 4.90625 17.2432C4.82948 17.2476 4.76291 17.25 4.70605 17.25C4.42635 17.25 4.189 17.1555 3.96094 16.9277C3.75122 16.7183 3.65275 16.4769 3.66309 16.1504V16.1455L3.76367 12.1553L3.76953 11.9023L3.62207 11.6982L0.944336 7.98633L0.942383 7.98242L0.852539 7.83691C0.828974 7.78996 0.810774 7.74431 0.797852 7.7002C0.764781 7.58702 0.75 7.47921 0.75 7.375C0.75 7.15379 0.81118 6.94842 0.950195 6.74316C1.072 6.56332 1.24107 6.4302 1.48926 6.34375L5.61426 4.95703L5.83203 4.88379L5.97168 4.70117L8.67578 1.15234L8.67969 1.14746C8.76383 1.03487 8.85042 0.955075 8.93945 0.899414L9.0293 0.851562C9.17726 0.784025 9.3319 0.75 9.5 0.75Z" stroke="#333333" stroke-width="1.5"/>
</svg>
