<svg width="32" height="32" viewBox="0 0 32 32" fill="none" xmlns="http://www.w3.org/2000/svg">
<mask id="mask0_654_1095" style="mask-type:alpha" maskUnits="userSpaceOnUse" x="0" y="0" width="32" height="32">
<rect width="32" height="32" fill="#D9D9D9"/>
</mask>
<g mask="url(#mask0_654_1095)">
<path d="M24.5 29C24.5 29.006 24.4879 29.1387 24.144 29.3555C23.825 29.5566 23.3303 29.7562 22.6745 29.9311C21.3701 30.2789 19.5405 30.5 17.5 30.5C15.4595 30.5 13.6299 30.2789 12.3255 29.9311C11.6697 29.7562 11.175 29.5566 10.856 29.3555C10.5121 29.1387 10.5 29.006 10.5 29C10.5 28.994 10.5121 28.8613 10.856 28.6445C11.175 28.4434 11.6697 28.2438 12.3255 28.0689C13.6299 27.7211 15.4595 27.5 17.5 27.5C19.5405 27.5 21.3701 27.7211 22.6745 28.0689C23.3303 28.2438 23.825 28.4434 24.144 28.6445C24.4879 28.8613 24.5 28.994 24.5 29Z" fill="#A5210D" stroke="#A5210D"/>
<path d="M15.9558 28.2083L15.956 28.2083L15.5343 16.2469L10.1977 14.671H2.11965C1.75563 14.671 1.42728 14.5416 1.1687 14.2815C0.909916 14.0216 0.781982 13.6927 0.781982 13.329C0.781982 12.9651 0.910006 12.6356 1.1719 12.3773M15.9558 28.2083L2.11965 14.171C1.88232 14.171 1.68343 14.0902 1.52298 13.9287C1.36232 13.7673 1.28198 13.5674 1.28198 13.329C1.28198 13.0903 1.36232 12.8918 1.52298 12.7333C1.68343 12.5749 1.88232 12.4957 2.11965 12.4957H9.48532M15.9558 28.2083L15.9566 28.2214C15.9782 28.5714 16.1189 28.8809 16.3714 29.1251C16.6245 29.3698 16.9398 29.5 17.293 29.5C17.6581 29.5 17.9956 29.3882 18.2723 29.1468C18.5414 28.9121 18.7034 28.6059 18.7356 28.2482L18.7358 28.2482L18.7366 28.2356L19.5643 15.4283L29.8227 7.80919C30.1137 7.60064 30.3018 7.30637 30.3468 6.94436L30.3468 6.9443C30.3921 6.58011 30.2788 6.24727 30.0304 5.98256C29.8234 5.74963 29.5652 5.5763 29.2536 5.51428L29.2535 5.51426C28.9532 5.45458 28.6562 5.501 28.3917 5.6644L18.6491 11.5036L15.7902 10.713L19.8348 7.82666L19.8348 7.82675L19.8435 7.82025C20.1528 7.58928 20.3404 7.26721 20.3732 6.87918L20.3732 6.87871C20.4037 6.5154 20.3039 6.1772 20.0805 5.88897L20.0663 5.87068L20.0505 5.85377C19.8275 5.61541 19.5496 5.45645 19.2238 5.40781L19.2233 5.40773C18.8859 5.35773 18.5679 5.44196 18.2909 5.63199L18.2908 5.63193L18.2842 5.63661L9.3259 11.9957M15.9558 28.2083L9.48532 12.4957M1.1719 12.3773L1.52297 12.7333L1.17165 12.3776C1.17174 12.3775 1.17182 12.3774 1.1719 12.3773ZM1.1719 12.3773C1.4312 12.1214 1.75857 11.9957 2.11965 11.9957H9.3259M9.3259 11.9957L9.1959 12.0879L9.48532 12.4957M9.3259 11.9957H9.48532V12.4957M6.11361 10.0174L6.11353 10.0173C5.56085 9.46598 5.27965 8.78446 5.27965 8.00166C5.27965 7.21947 5.55999 6.53782 6.11091 5.98529L6.111 5.98521C6.6623 5.43257 7.34369 5.15133 8.12632 5.15133C8.90865 5.15133 9.59033 5.43161 10.1427 5.9826L6.11361 10.0174ZM6.11361 10.0174C6.66614 10.5683 7.34779 10.8487 8.12998 10.8487C8.9126 10.8487 9.59406 10.5674 10.1455 10.0149L10.1457 10.0147M6.11361 10.0174L10.1457 10.0147M10.1457 10.0147C10.6966 9.46217 10.977 8.78053 10.977 7.99833C10.977 7.2155 10.6956 6.53398 10.1428 5.98268L10.1457 10.0147Z" fill="#A5210D" stroke="white"/>
</g>
</svg>
