<svg width="20" height="19" viewBox="0 0 20 19" fill="none" xmlns="http://www.w3.org/2000/svg">
<path d="M10.655 9.77295V5.6282C10.655 5.44987 10.5946 5.30053 10.4738 5.1802C10.3531 5.06003 10.2032 4.99995 10.024 4.99995C9.84486 4.99995 9.69586 5.06003 9.57703 5.1802C9.4582 5.30053 9.39878 5.44987 9.39878 5.6282V9.96395C9.39878 10.0618 9.41711 10.1568 9.45378 10.249C9.49061 10.3411 9.54986 10.428 9.63153 10.5095L12.632 13.5102C12.7525 13.6307 12.8973 13.6925 13.0663 13.6957C13.2354 13.699 13.3834 13.6372 13.5103 13.5102C13.6373 13.3834 13.7008 13.2359 13.7008 13.0679C13.7008 12.8999 13.6373 12.7525 13.5103 12.6257L10.655 9.77295ZM9.98803 18.4729C8.81853 18.4729 7.71786 18.2516 6.68603 17.809C5.65436 17.3661 4.7552 16.7624 3.98853 15.9979C3.22186 15.2334 2.61545 14.3354 2.16928 13.3039C1.72311 12.2726 1.50003 11.1683 1.50003 9.99095C1.50003 8.81362 1.72311 7.71053 2.16928 6.6817C2.61545 5.65287 3.22186 4.75337 3.98853 3.9832C4.7552 3.2132 5.65436 2.60687 6.68603 2.1642C7.71786 1.72137 8.81853 1.49995 9.98803 1.49995C11.1575 1.49995 12.2577 1.72137 13.2885 2.1642C14.3192 2.60687 15.2196 3.2132 15.9898 3.9832C16.7598 4.75337 17.3662 5.65303 17.809 6.6822C18.2517 7.71137 18.473 8.81478 18.473 9.99245C18.473 11.1701 18.2517 12.2743 17.809 13.305C17.3662 14.3358 16.7598 15.2334 15.9898 15.9979C15.2196 16.7624 14.3192 17.3661 13.2885 17.809C12.2577 18.2516 11.1575 18.4729 9.98803 18.4729ZM0.283279 4.04045C0.156445 3.91128 0.0946951 3.76278 0.0980284 3.59495C0.101528 3.42695 0.166695 3.27945 0.293528 3.15245L3.18978 0.303701C3.31028 0.190034 3.45761 0.13445 3.63178 0.13695C3.80595 0.139283 3.95345 0.20045 4.07428 0.32045C4.20128 0.443117 4.26203 0.589534 4.25653 0.7597C4.25086 0.9297 4.1877 1.07562 4.06703 1.19745L1.16803 4.04745C1.0432 4.16112 0.893529 4.21778 0.719029 4.21745C0.544362 4.21728 0.399112 4.15828 0.283279 4.04045ZM19.6963 4.0372C19.5761 4.1572 19.4304 4.21895 19.259 4.22245C19.0877 4.22578 18.9385 4.16745 18.8115 4.04745L15.9155 1.1987C15.7949 1.0892 15.7313 0.946117 15.7248 0.769451C15.7181 0.592784 15.7783 0.443117 15.9053 0.32045C16.0209 0.20045 16.1645 0.138699 16.336 0.135199C16.5074 0.131866 16.6564 0.188034 16.7833 0.303701L19.6795 3.15245C19.8 3.26712 19.8646 3.41145 19.8733 3.58545C19.8821 3.75962 19.8231 3.9102 19.6963 4.0372ZM9.98803 17.2167C11.996 17.2167 13.7028 16.5138 15.1083 15.1079C16.5139 13.7023 17.2168 11.996 17.2168 9.98895C17.2168 7.98012 16.5139 6.27253 15.108 4.8662C13.7024 3.4597 11.996 2.75645 9.98903 2.75645C7.9802 2.75645 6.27261 3.45962 4.86628 4.86595C3.45978 6.27245 2.75653 7.97978 2.75653 9.98795C2.75653 11.996 3.4597 13.7027 4.86603 15.1082C6.27253 16.5139 7.97986 17.2167 9.98803 17.2167Z" fill="#777777"/>
</svg>
